<svg width="40" height="40" viewBox="0 0 40 40" fill="none" xmlns="http://www.w3.org/2000/svg">
<path d="M2.128 11.02C3.79202 7.70649 6.34475 4.92102 9.50086 2.97494C12.657 1.02885 16.2921 -0.00116714 20 9.92462e-07C25.39 9.92462e-07 29.918 1.98 33.38 5.21L27.646 10.946C25.572 8.964 22.936 7.954 20 7.954C14.79 7.954 10.38 11.474 8.81 16.2C8.41 17.4 8.182 18.68 8.182 20C8.182 21.32 8.41 22.6 8.81 23.8C10.382 28.528 14.79 32.046 20 32.046C22.69 32.046 24.98 31.336 26.772 30.136C27.8109 29.452 28.7003 28.5644 29.3864 27.527C30.0725 26.4895 30.5412 25.3237 30.764 24.1H20V16.364H38.836C39.072 17.672 39.2 19.036 39.2 20.454C39.2 26.546 37.02 31.674 33.236 35.154C29.928 38.21 25.4 40 20 40C17.3733 40.001 14.7721 39.4844 12.3451 38.4797C9.9181 37.475 7.7129 36.0019 5.85552 34.1445C3.99814 32.2871 2.52499 30.0819 1.52027 27.6549C0.515548 25.2279 -0.00104972 22.6267 1.60143e-06 20C1.60143e-06 16.772 0.772001 13.72 2.128 11.02Z" fill="white"/>
</svg>
