<svg width="99" height="92" viewBox="0 0 99 92" fill="none" xmlns="http://www.w3.org/2000/svg">
<path d="M51.4175 7.17204L56.512 2.10065C59.3255 -0.700235 63.8874 -0.700197 66.7009 2.10065L76.8898 12.2434C79.7034 15.0442 79.7034 19.5853 76.8898 22.3861L71.7954 27.4576L51.4175 7.17204Z" fill="white"/>
<path d="M2.11023 55.6137C0.759036 56.9589 7.47227e-06 58.7832 0 60.6851V78H17.3936C19.3045 78 21.137 77.2444 22.4881 75.8992L63.6808 34.8931L43.3029 14.6076L2.11023 55.6137Z" fill="white"/>
<path d="M24.8352 91.3644C16.511 91.8064 8.53183 90.0467 0.236633 86H17.3936C21.4144 86 25.2781 84.4101 28.1324 81.5686L35.9921 73.8601C38.4578 73.014 41.0767 71.9539 43.8965 70.6722C67.2319 60.0652 85.5445 69.116 95.9827 78.3945C99.0786 81.1463 99.3575 85.8869 96.6056 88.9828C93.8537 92.0786 89.1131 92.3575 86.0173 89.6056C78.4555 82.884 66.3682 76.9347 50.1035 84.3277C41.4306 88.27 33.2106 90.9197 24.8352 91.3644Z" fill="white"/>
</svg>
