<svg width="104" height="77" viewBox="0 0 104 77" fill="none" xmlns="http://www.w3.org/2000/svg">
<path d="M85.9671 4.89287L93.1002 4.003C97.0396 3.51148 100.646 6.30491 101.155 10.2421L103 24.5C103.509 28.4372 100.729 32.0273 96.7892 32.5188L89.6561 33.4087L85.9671 4.89287Z" fill="white"/>
<path d="M77.242 6.16066L80.931 34.6765L52.0928 38.2741L46.3004 35.8164L53.5205 28.1274L47.2346 20.729L52.7069 16.1134L48.4038 9.7583L77.242 6.16066Z" fill="white"/>
<path d="M32.4182 27.2963L20.1324 19.3582L26.1324 11.3582L32.4182 27.2963Z" fill="white"/>
<path d="M2.11023 40.6134C0.759036 41.9586 7.47227e-06 43.7829 0 45.6848V62.9996H17.3936C19.3045 62.9996 21.137 62.244 22.4881 60.8989L35.9921 47.5818L30.9182 47.0818L32.4182 37.0818L22.4103 38.0818L23.4182 29.5818L15.6142 27.2963L2.11023 40.6134Z" fill="white"/>
<path d="M24.8352 76.3641C16.511 76.8061 8.53183 75.0464 0.236633 70.9996H17.3936C21.4144 70.9996 25.2781 69.4097 28.1324 66.5682L35.9921 58.8598C38.4578 58.0137 41.0767 56.9536 43.8965 55.6719C67.2319 45.0649 85.5445 54.1157 95.9827 63.3941C99.0786 66.146 99.3575 70.8865 96.6056 73.9824C93.8537 77.0782 89.1131 77.3571 86.0173 74.6052C78.4555 67.8836 66.3682 61.9343 50.1035 69.3274C41.4306 73.2696 33.2106 75.9194 24.8352 76.3641Z" fill="white"/>
<path d="M37.7142 14L30.1179 0.790904L39.5 0.790894L37.7142 14Z" fill="white"/>
</svg>
