<svg width="41" height="40" viewBox="0 0 41 40" fill="none" xmlns="http://www.w3.org/2000/svg">
<path d="M8.62107 25.2632C8.62107 26.3799 8.17746 27.4508 7.38783 28.2404C6.5982 29.0301 5.52724 29.4737 4.41054 29.4737C3.29384 29.4737 2.22287 29.0301 1.43325 28.2404C0.64362 27.4508 0.200012 26.3799 0.200012 25.2632C0.200012 24.1465 0.64362 23.0755 1.43325 22.2859C2.22287 21.4962 3.29384 21.0526 4.41054 21.0526H8.62107V25.2632ZM10.7263 25.2632C10.7263 24.1465 11.1699 23.0755 11.9596 22.2859C12.7492 21.4962 13.8202 21.0526 14.9369 21.0526C16.0536 21.0526 17.1245 21.4962 17.9141 22.2859C18.7038 23.0755 19.1474 24.1465 19.1474 25.2632V35.7895C19.1474 36.9062 18.7038 37.9771 17.9141 38.7668C17.1245 39.5564 16.0536 40 14.9369 40C13.8202 40 12.7492 39.5564 11.9596 38.7668C11.1699 37.9771 10.7263 36.9062 10.7263 35.7895V25.2632ZM14.9369 8.42105C13.8202 8.42105 12.7492 7.97745 11.9596 7.18782C11.1699 6.39819 10.7263 5.32723 10.7263 4.21053C10.7263 3.09383 11.1699 2.02286 11.9596 1.23323C12.7492 0.443608 13.8202 0 14.9369 0C16.0536 0 17.1245 0.443608 17.9141 1.23323C18.7038 2.02286 19.1474 3.09383 19.1474 4.21053V8.42105H14.9369ZM14.9369 10.5263C16.0536 10.5263 17.1245 10.9699 17.9141 11.7596C18.7038 12.5492 19.1474 13.6201 19.1474 14.7368C19.1474 15.8535 18.7038 16.9245 17.9141 17.7141C17.1245 18.5038 16.0536 18.9474 14.9369 18.9474H4.41054C3.29384 18.9474 2.22287 18.5038 1.43325 17.7141C0.64362 16.9245 0.200012 15.8535 0.200012 14.7368C0.200012 13.6201 0.64362 12.5492 1.43325 11.7596C2.22287 10.9699 3.29384 10.5263 4.41054 10.5263H14.9369ZM31.779 14.7368C31.779 13.6201 32.2226 12.5492 33.0122 11.7596C33.8018 10.9699 34.8728 10.5263 35.9895 10.5263C37.1062 10.5263 38.1772 10.9699 38.9668 11.7596C39.7564 12.5492 40.2 13.6201 40.2 14.7368C40.2 15.8535 39.7564 16.9245 38.9668 17.7141C38.1772 18.5038 37.1062 18.9474 35.9895 18.9474H31.779V14.7368ZM29.6737 14.7368C29.6737 15.8535 29.2301 16.9245 28.4405 17.7141C27.6508 18.5038 26.5799 18.9474 25.4632 18.9474C24.3465 18.9474 23.2755 18.5038 22.4859 17.7141C21.6963 16.9245 21.2526 15.8535 21.2526 14.7368V4.21053C21.2526 3.09383 21.6963 2.02286 22.4859 1.23323C23.2755 0.443608 24.3465 0 25.4632 0C26.5799 0 27.6508 0.443608 28.4405 1.23323C29.2301 2.02286 29.6737 3.09383 29.6737 4.21053V14.7368ZM25.4632 31.5789C26.5799 31.5789 27.6508 32.0226 28.4405 32.8122C29.2301 33.6018 29.6737 34.6728 29.6737 35.7895C29.6737 36.9062 29.2301 37.9771 28.4405 38.7668C27.6508 39.5564 26.5799 40 25.4632 40C24.3465 40 23.2755 39.5564 22.4859 38.7668C21.6963 37.9771 21.2526 36.9062 21.2526 35.7895V31.5789H25.4632ZM25.4632 29.4737C24.3465 29.4737 23.2755 29.0301 22.4859 28.2404C21.6963 27.4508 21.2526 26.3799 21.2526 25.2632C21.2526 24.1465 21.6963 23.0755 22.4859 22.2859C23.2755 21.4962 24.3465 21.0526 25.4632 21.0526H35.9895C37.1062 21.0526 38.1772 21.4962 38.9668 22.2859C39.7564 23.0755 40.2 24.1465 40.2 25.2632C40.2 26.3799 39.7564 27.4508 38.9668 28.2404C38.1772 29.0301 37.1062 29.4737 35.9895 29.4737H25.4632Z" fill="white"/>
</svg>
