<svg width="21" height="21" viewBox="0 0 21 21" fill="none" xmlns="http://www.w3.org/2000/svg">
<path d="M0.5 3.5C0.5 2.67157 1.17157 2 2 2H19C19.8284 2 20.5 2.67157 20.5 3.5C20.5 4.32843 19.8284 5 19 5H2C1.17157 5 0.5 4.32843 0.5 3.5Z" fill="white"/>
<path d="M6.5 10.5C6.5 9.67157 7.17157 9 8 9H19C19.8284 9 20.5 9.67157 20.5 10.5C20.5 11.3284 19.8284 12 19 12H8C7.17157 12 6.5 11.3284 6.5 10.5Z" fill="white"/>
<path d="M5 16C4.17157 16 3.5 16.6716 3.5 17.5C3.5 18.3284 4.17157 19 5 19H19C19.8284 19 20.5 18.3284 20.5 17.5C20.5 16.6716 19.8284 16 19 16H5Z" fill="white"/>
</svg>
