<svg width="21" height="21" viewBox="0 0 21 21" fill="none" xmlns="http://www.w3.org/2000/svg">
<path d="M0.5 3.5C0.5 2.67157 1.17157 2 2 2H19C19.8284 2 20.5 2.67157 20.5 3.5C20.5 4.32843 19.8284 5 19 5H2C1.17157 5 0.5 4.32843 0.5 3.5Z" fill="white"/>
<path d="M3.5 10.5C3.5 9.67157 4.17157 9 5 9H16C16.8284 9 17.5 9.67157 17.5 10.5C17.5 11.3284 16.8284 12 16 12H5C4.17157 12 3.5 11.3284 3.5 10.5Z" fill="white"/>
<path d="M3 16C2.17157 16 1.5 16.6716 1.5 17.5C1.5 18.3284 2.17157 19 3 19H17C17.8284 19 18.5 18.3284 18.5 17.5C18.5 16.6716 17.8284 16 17 16H3Z" fill="white"/>
</svg>
