<svg width="21" height="21" viewBox="0 0 21 21" fill="none" xmlns="http://www.w3.org/2000/svg">
<path d="M0.5 3.5C0.5 2.67157 1.17157 2 2 2H19C19.8284 2 20.5 2.67157 20.5 3.5C20.5 4.32843 19.8284 5 19 5H2C1.17157 5 0.5 4.32843 0.5 3.5Z" fill="white"/>
<path d="M0.5 10.5C0.5 9.67157 1.17157 9 2 9H13C13.8284 9 14.5 9.67157 14.5 10.5C14.5 11.3284 13.8284 12 13 12H2C1.17157 12 0.5 11.3284 0.5 10.5Z" fill="white"/>
<path d="M2 16C1.17157 16 0.5 16.6716 0.5 17.5C0.5 18.3284 1.17157 19 2 19H16C16.8284 19 17.5 18.3284 17.5 17.5C17.5 16.6716 16.8284 16 16 16H2Z" fill="white"/>
</svg>
