<svg width="20" height="20" viewBox="0 0 20 20" fill="none" xmlns="http://www.w3.org/2000/svg">
<path fill-rule="evenodd" clip-rule="evenodd" d="M16.6316 13.3352C16.6316 14.2633 17.384 15.0158 18.3121 15.0158C19.2403 15.0158 19.9927 14.2633 19.9927 13.3352V1.83961C19.9976 1.78766 20 1.73502 20 1.68179C20 0.755272 19.2502 0.00387536 18.3243 0.00124231C18.3203 0.00120899 18.3162 0.00119781 18.3121 0.00119781C18.3084 0.00119781 18.3046 0.00120897 18.301 0.00123119H6.66594C5.73779 0.00123119 4.98538 0.753649 4.98538 1.68179C4.98538 2.60994 5.73779 3.36235 6.66594 3.36235H14.2601L0.492222 17.1301C-0.164074 17.7865 -0.164074 18.8505 0.492222 19.5069C1.14852 20.1631 2.21259 20.1631 2.8689 19.5069L16.6316 5.74422V13.3352Z" fill="white"/>
</svg>
