<svg width="20" height="20" viewBox="0 0 20 20" fill="none" xmlns="http://www.w3.org/2000/svg">
<path d="M0 2.00011C0 0.895537 0.895431 0.000106812 2 0.000106812H12C13.1046 0.000106812 14 0.895537 14 2.00011V12.0001C14 13.1047 13.1046 14.0001 12 14.0001H2C0.89543 14.0001 0 13.1047 0 12.0001V2.00011Z" fill="white"/>
<path d="M6 18.0001V16.0001H8V18.0001H18V8.00011H16V6.00011H18C19.1046 6.00011 20 6.89554 20 8.00011V18.0001C20 19.1047 19.1046 20.0001 18 20.0001H8C6.89543 20.0001 6 19.1047 6 18.0001Z" fill="white"/>
</svg>
