<svg width="20" height="21" viewBox="0 0 20 21" fill="none" xmlns="http://www.w3.org/2000/svg">
<path d="M6.56066 4.43934C5.97487 3.85355 5.02513 3.85355 4.43934 4.43934C3.85355 5.02513 3.85355 5.97487 4.43934 6.56066L7.97487 10.0962L4.43934 13.6317C3.85355 14.2175 3.85355 15.1673 4.43934 15.753C5.02513 16.3388 5.97488 16.3388 6.56066 15.753L10.0962 12.2175L13.6317 15.753C14.2175 16.3388 15.1673 16.3388 15.753 15.753C16.3388 15.1673 16.3388 14.2175 15.753 13.6317L12.2175 10.0962L15.753 6.56066C16.3388 5.97487 16.3388 5.02513 15.753 4.43934C15.1673 3.85355 14.2175 3.85355 13.6317 4.43934L10.0962 7.97487L6.56066 4.43934Z" fill="white"/>
</svg>
