<svg width="17" height="20" viewBox="0 0 17 20" fill="none" xmlns="http://www.w3.org/2000/svg">
<path d="M11 2.00011H2L2 14.0001H3V16.0001H2C0.89543 16.0001 0 15.1047 0 14.0001V2.00011C0 0.895537 0.895431 0.000106812 2 0.000106812H11C12.1046 0.000106812 13 0.895537 13 2.00011V3.00011H11V2.00011Z" fill="white"/>
<path fill-rule="evenodd" clip-rule="evenodd" d="M4 6.00011C4 4.89554 4.89543 4.00011 6 4.00011H15C16.1046 4.00011 17 4.89554 17 6.00011V18.0001C17 19.1047 16.1046 20.0001 15 20.0001H6C4.89543 20.0001 4 19.1047 4 18.0001V6.00011ZM6 6.00011H15V18.0001H6V6.00011Z" fill="white"/>
</svg>
