<svg width="20" height="20" viewBox="0 0 20 20" fill="none" xmlns="http://www.w3.org/2000/svg">
<path fill-rule="evenodd" clip-rule="evenodd" d="M9.97522 2.01058L0.742059 11.2438C-0.247353 12.2332 -0.247353 13.8361 0.742059 14.8255L3.90818 17.9916C4.3831 18.4665 5.0282 18.7317 5.701 18.7317H18.7335C19.434 18.7317 20 18.1657 20 17.4652C20 16.7647 19.434 16.1988 18.7335 16.1988H13.8221L18.9947 11.0301C19.9842 10.0407 19.9842 8.43781 18.9947 7.4484L13.5609 2.01058C12.5715 1.02117 10.9686 1.02117 9.97922 2.01058H9.97522ZM10.2404 16.2027H5.69704L2.53092 13.0366L7.46611 8.10141L12.9039 13.5392L10.2404 16.2027Z" fill="white"/>
</svg>
