<svg width="20" height="20" viewBox="0 0 20 20" fill="none" xmlns="http://www.w3.org/2000/svg">
<path fill-rule="evenodd" clip-rule="evenodd" d="M4 13.0001L5 13.7648C6.79047 11.0352 8.48824 9.57927 11.0294 9.5295V12.706C11.0294 13.2894 11.5705 13.7648 12.2396 13.7648C12.6251 13.7648 12.9544 13.5975 13.1746 13.3508C15.2213 11.2025 20 6.88244 20 6.88244C20 6.88244 15.2213 2.56033 13.1735 0.384445C12.9245 0.139098 12.5892 0.00111465 12.2396 9.15527e-05C11.5705 9.15527e-05 11.0294 0.473386 11.0294 1.05891V4.23538C6.09529 4.23538 4 9.15762 4 13.0001ZM10 1.00009H3C1.34315 1.00009 0 2.34324 0 4.00009V17.0001C0 18.657 1.34315 20.0001 3 20.0001H16C17.6569 20.0001 19 18.657 19 17.0001V9.00009L16.5 11.5001V16.5001C16.5 17.0524 16.0523 17.5001 15.5 17.5001H3.5C2.94772 17.5001 2.5 17.0524 2.5 16.5001V4.50009C2.5 3.94781 2.94772 3.50009 3.5 3.50009H10V1.00009Z" fill="white"/>
</svg>
