<svg width="21" height="21" viewBox="0 0 21 21" fill="none" xmlns="http://www.w3.org/2000/svg">
<path d="M17 2C17 1.44772 16.5523 1 16 1C15.4477 1 15 1.44772 15 2V7.29674L13.7593 5.84921C13.3998 5.42988 12.7685 5.38132 12.3492 5.74074C11.9299 6.10017 11.8813 6.73147 12.2407 7.15079L15.2407 10.6508C15.4307 10.8724 15.7081 11 16 11C16.2919 11 16.5693 10.8724 16.7593 10.6508L19.7593 7.15079C20.1187 6.73147 20.0701 6.10017 19.6508 5.74074C19.2315 5.38132 18.6002 5.42988 18.2407 5.84921L17 7.29674V2Z" fill="white"/>
<path fill-rule="evenodd" clip-rule="evenodd" d="M3.11446 19.8113C3.33704 19.9371 3.55962 20 3.7822 20C4.19767 20 4.50185 19.8882 4.69475 19.6647C4.88765 19.4271 5.02861 19.1337 5.11764 18.7845C5.20667 18.4352 5.28828 18.0788 5.36248 17.7155C5.43667 17.3383 5.54796 17.003 5.69634 16.7096C5.84473 16.4022 6.08956 16.1926 6.43084 16.0808C6.69793 15.9831 6.97986 15.9202 7.27663 15.8922C7.58824 15.8643 7.89983 15.8503 8.21147 15.8503C8.46371 15.8503 8.71595 15.8573 8.96818 15.8713H11.6392C11.8469 16.011 11.9952 16.2276 12.0843 16.5209C12.1733 16.8004 12.24 17.1147 12.2846 17.464C12.344 17.8133 12.4255 18.1487 12.5295 18.4701C12.6333 18.7915 12.7965 19.0569 13.0191 19.2665C13.2416 19.476 13.5607 19.5808 13.9762 19.5808C14.2581 19.5808 14.4955 19.4411 14.6884 19.1617C14.8961 18.8682 15 18.5888 15 18.3234V18.009C14.6587 16.3882 14.1988 14.7675 13.62 13.1467C13.0562 11.5259 12.4182 9.96806 11.7059 8.47305C11.5427 8.13772 11.3646 7.78144 11.1717 7.40419C10.9788 7.01298 10.7266 6.68463 10.415 6.41916C10.1182 6.13972 9.72497 6 9.23529 6C8.90886 6 8.58987 6.13273 8.27823 6.3982C7.98145 6.66367 7.71436 6.97106 7.47695 7.32036C7.25437 7.65569 7.0689 7.94211 6.92051 8.17964C6.84631 8.30539 6.71277 8.54292 6.51987 8.89222C6.32697 9.24152 6.11924 9.63273 5.89666 10.0659C5.67409 10.499 5.45893 10.9042 5.25119 11.2814C5.05829 11.6587 4.91733 11.9381 4.8283 12.1198C4.69475 12.3014 4.60572 12.504 4.56121 12.7275C4.51669 12.9511 4.43508 13.1537 4.31638 13.3353L3.98251 13.6497C3.78962 13.8034 3.52994 13.8942 3.20349 13.9222C2.87705 13.9501 2.54319 13.985 2.20191 14.027C1.86063 14.0688 1.57127 14.1736 1.33386 14.3413C1.11129 14.509 1 14.8024 1 15.2216C1 15.6407 1.10387 15.9341 1.3116 16.1018C1.53418 16.2555 1.80127 16.3463 2.11288 16.3743C2.43932 16.3882 2.75835 16.3952 3.06995 16.3952C3.05511 16.7724 2.98092 17.1427 2.84738 17.506C2.71383 17.8693 2.64706 18.2395 2.64706 18.6168V19.2665C2.73609 19.49 2.89189 19.6716 3.11446 19.8113ZM7.16534 13.5239C7.12082 13.5239 7.09857 13.4681 7.09857 13.3563V13.2515C7.17276 13.0839 7.27663 12.8603 7.41018 12.5808C7.55856 12.2874 7.71436 11.987 7.8776 11.6796C8.04079 11.3583 8.18917 11.0649 8.32276 10.7994C8.47115 10.52 8.575 10.3104 8.63432 10.1707C8.75304 10.0309 8.8421 9.88423 8.90143 9.73054C8.97562 9.56287 9.06468 9.40918 9.16853 9.26946H9.23529C9.30948 9.26946 9.35401 9.27645 9.36888 9.29042C9.44307 9.43014 9.56172 9.68862 9.72497 10.0659C9.88822 10.4291 10.0588 10.8273 10.2369 11.2605C10.415 11.6796 10.5559 12.0429 10.6598 12.3503C10.734 12.504 10.786 12.6577 10.8156 12.8114C10.8601 12.9511 10.8824 13.0978 10.8824 13.2515V13.4401C10.1553 13.482 9.56915 13.5099 9.124 13.5239H7.16534Z" fill="white"/>
</svg>
