<svg width="20" height="20" viewBox="0 0 20 20" fill="none" xmlns="http://www.w3.org/2000/svg">
<path fill-rule="evenodd" clip-rule="evenodd" d="M17.2181 5.00037C16.3421 4.98361 15.6251 5.71728 15.6251 6.59345V10.0001H15.3126V3.11689C15.3126 2.24072 14.5956 1.50705 13.7196 1.52381C12.8707 1.54006 12.1876 2.23326 12.1876 3.08603V10.0001H11.8751V1.59346C11.8751 0.717287 11.1581 -0.0163847 10.282 0.000373068C9.43319 0.0166231 8.75006 0.709826 8.75006 1.5626V10.0001H8.43756V3.15596C8.43756 2.27978 7.72053 1.54611 6.84455 1.56287C5.99569 1.57912 5.31256 2.27232 5.31256 3.1251V12.3435L4.07631 10.6436C3.56877 9.94568 2.59159 9.79134 1.89362 10.2989C1.19577 10.8065 1.04147 11.7837 1.54901 12.4816L6.4553 19.2279C6.62924 19.4671 6.8573 19.6617 7.12084 19.7959C7.38437 19.9301 7.67592 20.0001 7.97166 20.0001H15.69C16.5601 20.0001 17.3159 19.4015 17.5152 18.5546L18.5507 14.1538C18.6831 13.5908 18.75 13.0144 18.75 12.436V6.5626C18.7501 5.70982 18.067 5.01662 17.2181 5.00037Z" fill="white"/>
</svg>
