<svg width="20" height="20" viewBox="0 0 20 20" fill="none" xmlns="http://www.w3.org/2000/svg">
<path d="M0.074646 8.42111C0.0253296 8.11926 0 7.81187 0 7.50003C0 5.82595 0.731323 4.27998 1.96741 3.03201L3.38837 4.43942C2.46277 5.37392 2 6.39412 2 7.50003C2 7.70111 2.01617 7.90077 2.04852 8.09902L0.074646 8.42111Z" fill="white"/>
<path d="M15.102 13.9518C13.6597 14.5947 11.9834 14.9734 10.1919 14.9986L10.1636 12.9988C11.6534 12.9778 13.0281 12.6866 14.2877 12.1251L15.102 13.9518Z" fill="white"/>
<path d="M19.9811 7.03574C19.9937 7.1893 20 7.34411 20 7.50003C20 9.02707 19.3915 10.4475 18.3464 11.6324L16.8465 10.3095C17.6155 9.43761 18 8.50112 18 7.50003C17.9999 7.39917 17.9958 7.29855 17.9877 7.19816L19.9811 7.03574Z" fill="white"/>
<path d="M14.2274 0.70116C15.9396 1.30104 17.3878 2.25404 18.4054 3.43525L16.8901 4.74061C16.0779 3.79781 14.9699 3.0805 13.5661 2.58868L14.2274 0.70116Z" fill="white"/>
<path d="M10.2856 0.00302791L10.2436 2.00259C10.1624 2.00088 10.0812 2.00003 10 2.00003C8.59668 2.00003 7.28564 2.24193 6.06683 2.72574L5.32892 0.866829C6.72314 0.313422 8.31274 2.67029e-05 10 2.67029e-05C10.0955 2.67029e-05 10.1907 0.00103187 10.2856 0.00302791Z" fill="white"/>
<path d="M2 12.5C2 11.1193 3.11929 10 4.5 10C5.88071 10 7 11.1193 7 12.5C7 13.8807 5.88071 15 4.5 15C4.42772 15 4.35616 14.997 4.28544 14.9909C4.23066 15.0602 4.17688 15.1321 4.12475 15.2065C3.54323 16.0367 3.17691 17.1398 3.89164 18.5472C4.14171 19.0397 3.94524 19.6416 3.45281 19.8916C2.96039 20.1417 2.35847 19.9452 2.1084 19.4528C0.97158 17.2142 1.60526 15.3174 2.48663 14.0591C2.49592 14.0458 2.50524 14.0326 2.51458 14.0195C2.19181 13.5984 2 13.0716 2 12.5Z" fill="white"/>
</svg>
