<svg width="20" height="20" viewBox="0 0 20 20" fill="none" xmlns="http://www.w3.org/2000/svg">
<path fill-rule="evenodd" clip-rule="evenodd" d="M10.6718 17.2572C10.2721 17.5681 9.70569 17.5681 9.30591 17.2572L2.47637 11.949C2.2829 11.7979 2.04446 11.7158 1.79897 11.7158C1.55348 11.7158 1.31504 11.7979 1.12157 11.949C0.989288 12.0526 0.882321 12.1849 0.808756 12.3359C0.73519 12.487 0.69696 12.6528 0.69696 12.8208C0.69696 12.9888 0.73519 13.1545 0.808756 13.3056C0.882321 13.4566 0.989288 13.5889 1.12157 13.6925L8.62851 19.5337C9.42806 20.1556 10.5497 20.1556 11.3603 19.5337L18.8673 13.6925C19.4336 13.2483 19.4336 12.3932 18.8673 11.949L18.8562 11.9379C18.6627 11.7868 18.4243 11.7047 18.1788 11.7047C17.9333 11.7047 17.6948 11.7868 17.5014 11.9379L10.6718 17.2572ZM11.3714 13.9035L18.8784 8.06226C19.4447 7.61806 19.4447 6.75187 18.8784 6.30768L11.3714 0.466476C10.5719 -0.155401 9.45027 -0.155401 8.63961 0.466476L1.13267 6.31878C0.566321 6.76298 0.566321 7.62916 1.13267 8.07336L8.63961 13.9146C9.43917 14.5365 10.5719 14.5365 11.3714 13.9035Z" fill="white"/>
</svg>
