<svg width="20" height="20" viewBox="0 0 20 20" fill="none" xmlns="http://www.w3.org/2000/svg">
<path fill-rule="evenodd" clip-rule="evenodd" d="M3 10.0001C3 6.1341 6.13402 3.00009 10 3.00009V5.00009C8.61927 5.00009 7.44076 5.48825 6.46446 6.46456C5.48813 7.44088 4.99996 8.6194 5 10.0001C5 11.3808 5.48817 12.5593 6.46446 13.5356C7.44076 14.5119 8.61927 15.0001 10 15.0001C11.3807 15.0001 12.5592 14.5119 13.5355 13.5356C14.5118 12.5593 15 11.3808 15 10.0001H17C17 13.8661 13.866 17.0001 10 17.0001C6.13402 17.0001 3 13.8661 3 10.0001Z" fill="white"/>
</svg>
