<svg width="20" height="20" viewBox="0 0 20 20" fill="none" xmlns="http://www.w3.org/2000/svg">
<path fill-rule="evenodd" clip-rule="evenodd" d="M18 10.0001C18 8.34324 16.6568 7.00009 15 7.00009V5.00009C15 2.23867 12.7614 9.15527e-05 10 9.15527e-05C7.2386 9.15527e-05 5.00002 2.23867 5.00002 5.00009V7.00009C3.34317 7.00009 2.00002 8.34324 2.00002 10.0001V17.0001C2.00002 18.657 3.34317 20.0001 5.00002 20.0001H15C16.6568 20.0001 18 18.657 18 17.0001V10.0001ZM13 5.00009V7.00009H7.00002V5.00009C7.00002 3.34324 8.34317 2.00009 10 2.00009C11.6568 2.00009 13 3.34324 13 5.00009ZM10 12.0001C9.44774 12.0001 9.00002 12.4478 9.00002 13.0001V16.0001C9.00002 16.5524 9.44774 17.0001 10 17.0001C10.5523 17.0001 11 16.5524 11 16.0001V13.0001C11 12.4478 10.5523 12.0001 10 12.0001Z" fill="white"/>
</svg>
