<svg width="20" height="20" viewBox="0 0 20 20" fill="none" xmlns="http://www.w3.org/2000/svg">
<path fill-rule="evenodd" clip-rule="evenodd" d="M10 9.15527e-05C15.523 9.15527e-05 20 4.47709 20 10.0001C20 10.6491 19.938 11.2841 19.82 11.9001C19.447 13.8351 17.56 14.6911 15.913 14.4951L15.738 14.4701L13.998 14.1801C13.7955 14.1463 13.5879 14.1614 13.3924 14.224C13.1969 14.2866 13.0192 14.395 12.874 14.5401C12.504 14.9101 12.327 15.4191 12.576 15.9161C12.999 16.7621 13.005 17.7281 12.631 18.5191C12.131 19.5801 11.11 20.0001 10 20.0001C4.477 20.0001 0 15.5231 0 10.0001C0 4.47709 4.477 9.15527e-05 10 9.15527e-05ZM5.5 9.00009C5.30302 9.00009 5.10796 9.03889 4.92598 9.11427C4.74399 9.18965 4.57863 9.30014 4.43934 9.43943C4.30005 9.57872 4.18956 9.74408 4.11418 9.92606C4.0388 10.1081 4 10.3031 4 10.5001C4 10.6971 4.0388 10.8921 4.11418 11.0741C4.18956 11.2561 4.30005 11.4215 4.43934 11.5608C4.57863 11.7 4.74399 11.8105 4.92598 11.8859C5.10796 11.9613 5.30302 12.0001 5.5 12.0001C5.89783 12.0001 6.27936 11.8421 6.56066 11.5608C6.84197 11.2795 7 10.8979 7 10.5001C7 10.1023 6.84197 9.72073 6.56066 9.43943C6.27936 9.15813 5.89783 9.00009 5.5 9.00009ZM12.5 5.00009C12.1021 5.00009 11.7206 5.15813 11.4393 5.43943C11.158 5.72073 11 6.10227 11 6.50009C11 6.89791 11.158 7.27945 11.4393 7.56075C11.7206 7.84205 12.1021 8.00009 12.5 8.00009C12.8978 8.00009 13.2793 7.84205 13.5606 7.56075C13.8419 7.27945 14 6.89791 14 6.50009C14 6.10227 13.8419 5.72073 13.5606 5.43943C13.2793 5.15813 12.8978 5.00009 12.5 5.00009ZM7.5 5.00009C7.10218 5.00009 6.72065 5.15813 6.43934 5.43943C6.15804 5.72073 6 6.10227 6 6.50009C6 6.89791 6.15804 7.27945 6.43934 7.56075C6.72065 7.84205 7.10218 8.00009 7.5 8.00009C7.89783 8.00009 8.27936 7.84205 8.56066 7.56075C8.84197 7.27945 9 6.89791 9 6.50009C9 6.10227 8.84197 5.72073 8.56066 5.43943C8.27936 5.15813 7.89783 5.00009 7.5 5.00009Z" fill="white"/>
</svg>
