<svg width="20" height="20" viewBox="0 0 20 20" fill="none" xmlns="http://www.w3.org/2000/svg">
<path fill-rule="evenodd" clip-rule="evenodd" d="M6.17683 9.70595C7.19096 9.70595 8.16354 9.30309 8.88064 8.586C9.59773 7.8689 10.0006 6.89632 10.0006 5.88219C10.0006 4.86807 9.59773 3.89548 8.88064 3.17839C8.16354 2.4613 7.19096 2.05844 6.17683 2.05844C5.16271 2.05844 4.19012 2.4613 3.47303 3.17839C2.75594 3.89548 2.35308 4.86807 2.35308 5.88219C2.35308 6.89632 2.75594 7.8689 3.47303 8.586C4.19012 9.30309 5.16271 9.70595 6.17683 9.70595ZM12.8678 15.7593C13.4914 16.0146 14.2844 16.1769 15.2938 16.1769C20 16.1769 20 12.6473 20 12.6473C20 12.1795 19.8142 11.7307 19.4835 11.3998C19.1528 11.0689 18.7042 10.8828 18.2364 10.8825H12.7913C13.2537 11.4425 13.5314 12.159 13.5314 12.9414V13.3603C13.529 13.4594 13.5223 13.5583 13.5114 13.6568C13.432 14.3919 13.214 15.1053 12.869 15.7593H12.8678ZM18.2364 6.7646C18.2364 7.54469 17.9265 8.29284 17.3749 8.84445C16.8233 9.39606 16.0751 9.70595 15.295 9.70595C14.5149 9.70595 13.7668 9.39606 13.2152 8.84445C12.6636 8.29284 12.3537 7.54469 12.3537 6.7646C12.3537 5.9845 12.6636 5.23636 13.2152 4.68475C13.7668 4.13314 14.5149 3.82325 15.295 3.82325C16.0751 3.82325 16.8233 4.13314 17.3749 4.68475C17.9265 5.23636 18.2364 5.9845 18.2364 6.7646ZM0 13.2356C0 12.6115 0.247913 12.013 0.689201 11.5717C1.13049 11.1304 1.729 10.8825 2.35308 10.8825H10.0006C10.6247 10.8825 11.2232 11.1304 11.6645 11.5717C12.1058 12.013 12.3537 12.6115 12.3537 13.2356C12.3537 13.2356 12.3537 17.9417 6.17683 17.9417C0 17.9417 0 13.2356 0 13.2356Z" fill="white"/>
</svg>
