<svg width="20" height="20" viewBox="0 0 20 20" fill="none" xmlns="http://www.w3.org/2000/svg">
<path fill-rule="evenodd" clip-rule="evenodd" d="M10 2C9.26362 2 8.66667 2.59695 8.66667 3.33333V8.66667H3.33333C2.59695 8.66667 2 9.26362 2 10C2 10.7364 2.59695 11.3333 3.33333 11.3333H8.66667V16.6667C8.66667 17.403 9.26362 18 10 18C10.7364 18 11.3333 17.403 11.3333 16.6667V11.3333H16.6667C17.403 11.3333 18 10.7364 18 10C18 9.26362 17.403 8.66667 16.6667 8.66667H11.3333V3.33333C11.3333 2.59695 10.7364 2 10 2Z" fill="white"/>
</svg>
