<svg width="21" height="21" viewBox="0 0 21 21" fill="none" xmlns="http://www.w3.org/2000/svg">
<path d="M13.937 4.21208C14.1562 4.3614 14.3071 4.59168 14.3565 4.85226C14.4059 5.11284 14.3498 5.38238 14.2005 5.60158C14.0512 5.82079 13.8209 5.97169 13.5603 6.02111C13.2998 6.07053 13.0302 6.0144 12.811 5.86508C11.8878 5.23747 10.7811 4.93687 9.6672 5.01118C8.55333 5.08549 7.49636 5.53042 6.66467 6.2751C5.83299 7.01978 5.27445 8.02137 5.07802 9.12031C4.88159 10.2192 5.05858 11.3523 5.58078 12.339C6.10299 13.3257 6.94038 14.1092 7.95954 14.5648C8.9787 15.0204 10.121 15.1218 11.2045 14.8528C12.288 14.5839 13.2503 13.9601 13.9381 13.0809C14.2482 12.6845 14.4945 12.2464 14.6715 11.7826L13.539 12.5071C13.4284 12.5779 13.3049 12.6262 13.1756 12.6492C13.0463 12.6723 12.9137 12.6696 12.7854 12.6415C12.6572 12.6133 12.5357 12.5601 12.4279 12.485C12.3202 12.4098 12.2283 12.3142 12.1575 12.2036C12.0868 12.0929 12.0385 11.9694 12.0154 11.8401C11.9924 11.7108 11.995 11.5783 12.0232 11.45C12.0514 11.3217 12.1045 11.2002 12.1797 11.0925C12.2548 10.9847 12.3504 10.8929 12.461 10.8221L15.7853 8.69596C15.8676 8.61779 15.9627 8.5541 16.0665 8.50774C16.188 8.45355 16.3189 8.42411 16.4519 8.42115C16.5848 8.41819 16.717 8.44177 16.8407 8.4905C16.9644 8.53923 17.0771 8.61214 17.1723 8.70496C17.2675 8.79778 17.3432 8.90865 17.395 9.03108L18.903 12.4111C19.0051 12.6522 19.0085 12.9238 18.9125 13.1674C18.8165 13.4111 18.6288 13.6073 18.3897 13.7141C18.1506 13.8208 17.8791 13.8295 17.6337 13.7382C17.3882 13.647 17.1883 13.4631 17.077 13.2261L16.6341 12.2334C16.3828 12.9801 16.0055 13.684 15.5134 14.3131C14.5504 15.5441 13.203 16.4175 11.686 16.7939C10.1691 17.1704 8.56974 17.0283 7.14287 16.3904C5.716 15.7524 4.54369 14.6553 3.81271 13.2737C3.08174 11.8922 2.83416 10.3058 3.10942 8.76724C3.38467 7.22867 4.16694 5.8265 5.33156 4.78411C6.49619 3.74172 7.97618 3.11909 9.53573 3.01542C11.0953 2.91175 12.6447 3.33301 13.937 4.21208Z" fill="white"/>
</svg>
