<svg width="20" height="20" viewBox="0 0 20 20" fill="none" xmlns="http://www.w3.org/2000/svg">
<path fill-rule="evenodd" clip-rule="evenodd" d="M5 9.15527e-05V4.16676C5 4.8298 5.26339 5.46568 5.73223 5.93452C6.20107 6.40337 6.83696 6.66676 7.5 6.66676H10.8333C11.4964 6.66676 12.1323 6.40337 12.6011 5.93452C13.0699 5.46568 13.3333 4.8298 13.3333 4.16676V9.15527e-05H13.965C14.849 0.000280344 15.6967 0.351594 16.3217 0.976759L19.0233 3.67842C19.6485 4.3034 19.9998 5.15111 20 6.03509V16.6668C20 17.5508 19.6488 18.3987 19.0237 19.0238C18.3986 19.6489 17.5507 20.0001 16.6667 20.0001V12.5001C16.6667 11.8371 16.4033 11.2012 15.9344 10.7323C15.4656 10.2635 14.8297 10.0001 14.1667 10.0001H5.83333C4.455 10.0001 3.33333 11.1151 3.33333 12.4968V20.0001C2.44928 20.0001 1.60143 19.6489 0.976311 19.0238C0.351189 18.3987 0 17.5508 0 16.6668V3.33342C0 2.44937 0.351189 1.60152 0.976311 0.976403C1.60143 0.351281 2.44928 9.15527e-05 3.33333 9.15527e-05H5ZM6.66667 9.15527e-05V4.16676C6.66667 4.38777 6.75446 4.59973 6.91074 4.75601C7.06702 4.91229 7.27899 5.00009 7.5 5.00009H10.8333C11.0543 5.00009 11.2663 4.91229 11.4226 4.75601C11.5789 4.59973 11.6667 4.38777 11.6667 4.16676V9.15527e-05H6.66667ZM5 20.0001H15V12.5001C15 12.2791 14.9122 12.0671 14.7559 11.9108C14.5996 11.7546 14.3877 11.6668 14.1667 11.6668H5.83333C5.37167 11.6668 5 12.0384 5 12.4968V20.0001Z" fill="white"/>
</svg>
