<svg width="20" height="20" viewBox="0 0 20 20" fill="none" xmlns="http://www.w3.org/2000/svg">
<path fill-rule="evenodd" clip-rule="evenodd" d="M11.8203 20.0001H8.18031C7.95225 20.0001 7.73102 19.9222 7.55332 19.7793C7.37561 19.6363 7.25212 19.4369 7.20331 19.2141L6.79631 17.3301C6.25337 17.0922 5.73855 16.7947 5.26131 16.4431L3.42431 17.0281C3.20688 17.0974 2.97226 17.0903 2.75943 17.0079C2.5466 16.9255 2.36837 16.7728 2.25431 16.5751L0.430312 13.4241C0.317457 13.2262 0.275095 12.9959 0.310154 12.7709C0.345214 12.5458 0.455621 12.3393 0.623312 12.1851L2.04831 10.8851C1.98351 10.2962 1.98351 9.70198 2.04831 9.11309L0.623312 7.81609C0.455384 7.66186 0.344827 7.45516 0.309761 7.22987C0.274695 7.00458 0.317201 6.77406 0.430312 6.57609L2.25031 3.42309C2.36436 3.22541 2.5426 3.07268 2.75543 2.99028C2.96826 2.90787 3.20288 2.90075 3.42031 2.97009L5.25731 3.55509C5.50131 3.37509 5.75531 3.20709 6.01731 3.05509C6.27031 2.91309 6.53031 2.78409 6.79631 2.66909L7.20431 0.787092C7.25289 0.56429 7.37615 0.36478 7.55366 0.221641C7.73117 0.0785014 7.95228 0.000331519 8.18031 9.15527e-05H11.8203C12.0483 0.000331519 12.2694 0.0785014 12.4469 0.221641C12.6245 0.36478 12.7477 0.56429 12.7963 0.787092L13.2083 2.67009C13.7505 2.90936 14.2652 3.20677 14.7433 3.55709L16.5813 2.97209C16.7986 2.90301 17.033 2.91026 17.2456 2.99265C17.4582 3.07504 17.6363 3.22762 17.7503 3.42509L19.5703 6.57809C19.8023 6.98509 19.7223 7.50009 19.3773 7.81709L17.9523 9.11709C18.0171 9.70598 18.0171 10.3002 17.9523 10.8891L19.3773 12.1891C19.7223 12.5071 19.8023 13.0211 19.5703 13.4281L17.7503 16.5811C17.6362 16.7788 17.458 16.9315 17.2452 17.0139C17.0323 17.0963 16.7977 17.1034 16.5803 17.0341L14.7433 16.4491C14.2664 16.8004 13.7519 17.0976 13.2093 17.3351L12.7963 19.2141C12.7475 19.4367 12.6242 19.636 12.4467 19.7789C12.2692 19.9219 12.0482 19.9999 11.8203 20.0001ZM9.99632 6.00009C8.93545 6.00009 7.91803 6.42152 7.16789 7.17166C6.41774 7.92181 5.99631 8.93922 5.99631 10.0001C5.99631 11.061 6.41774 12.0784 7.16789 12.8285C7.91803 13.5787 8.93545 14.0001 9.99632 14.0001C11.0572 14.0001 12.0746 13.5787 12.8247 12.8285C13.5749 12.0784 13.9963 11.061 13.9963 10.0001C13.9963 8.93922 13.5749 7.92181 12.8247 7.17166C12.0746 6.42152 11.0572 6.00009 9.99632 6.00009Z" fill="white"/>
</svg>
