<svg width="20" height="21" viewBox="0 0 20 21" fill="none" xmlns="http://www.w3.org/2000/svg">
<path d="M8.84998 7.96487V4.5C8.84998 3.39543 7.95455 2.5 6.84998 2.5C5.74541 2.5 4.84998 3.39543 4.84998 4.5V7.96487C3.65437 7.27325 2.84998 5.98056 2.84998 4.5C2.84998 2.29086 4.64084 0.5 6.84998 0.5C9.05911 0.5 10.85 2.29086 10.85 4.5C10.85 5.98056 10.0456 7.27325 8.84998 7.96487Z" fill="white"/>
<path d="M15.6251 12.03C15.6251 11.1539 16.3421 10.4202 17.2181 10.437C18.067 10.4532 18.7501 11.1464 18.75 11.9992V12.9359C18.75 13.5143 18.6831 14.0907 18.5507 14.6537L17.5152 19.0545C17.3159 19.9014 16.5601 20.5 15.69 20.5H7.97166C7.67592 20.5 7.38437 20.43 7.12084 20.2958C6.8573 20.1616 6.62924 19.967 6.4553 19.7278L1.54901 12.9815C1.04147 12.2836 1.19577 11.3064 1.89362 10.7988C2.59159 10.2912 3.56877 10.4456 4.07631 11.1435L5.31256 12.8434V4.625C5.31256 3.77222 5.99569 3.07902 6.84455 3.06277C7.72053 3.04601 8.43756 3.77968 8.43756 4.65586V10.5H8.75006V9.96914C8.75006 9.11637 9.43319 8.42316 10.282 8.40691C11.1581 8.39016 11.8751 9.12383 11.8751 10L12 11.5L12.1876 10.9383C12.1876 10.0855 12.8707 9.39231 13.7196 9.37606C14.5956 9.3593 15.3126 10.093 15.3126 10.9691L15.5 12.5L15.6251 12.03Z" fill="white"/>
</svg>
