<?xml version="1.0" encoding="utf-8"?>
<svg width="20px" height="20px" viewBox="0 0 20 20" version="1.1" xmlns:xlink="http://www.w3.org/1999/xlink" xmlns="http://www.w3.org/2000/svg">
  <g id="greyboardiconsboxSelect">
    <path d="M16.1162 0L18.001 0Q18.829 2.23517e-08 19.4145 0.585494C19.8048 0.975823 20 1.44699 20 1.999L20 4L18 4L18 2L16.1162 2L16.1162 0ZM12.1162 0L8.11621 0L8.11621 2L12.1162 2L12.1162 0ZM4.11621 2L4.11621 0L1.999 0Q1.17099 0 0.585493 0.585494Q-1.49012e-08 1.17099 0 1.999L0 18.001Q0 18.829 0.585494 19.4145C0.975823 19.8048 1.44699 20 1.999 20L4.11621 20L4.11621 18L2 18L2 16L0.0161133 16L0.0161133 12L2 12L2 8L0.0161133 8L0.0161133 4L2 4L2 2L4.11621 2ZM8.11621 18L8.11621 20L12.1162 20L12.1162 18L8.11621 18ZM16.1162 18L16.1162 20L18.001 20C18.553 20 19.0242 19.8048 19.4145 19.4145C19.8048 19.0242 20 18.553 20 18.001L20 16L18 16L18 18L16.1162 18ZM20 12L20 8L18.1162 8L18.1162 12L20 12Z" id="Vector-Subtract" fill="#FFFFFF" fill-rule="evenodd" stroke="none" />
  </g>
</svg>