<svg width="20" height="20" viewBox="0 0 20 20" fill="none" xmlns="http://www.w3.org/2000/svg">
<path fill-rule="evenodd" clip-rule="evenodd" d="M16.1162 9.15527e-05H18.001C18.553 9.15676e-05 19.0242 0.195256 19.4145 0.585586C19.8048 0.975915 20 1.44708 20 1.99909V4.00009H18V2.00009H16.1162V9.15527e-05ZM12.1162 9.15527e-05H8.11621V2.00009H12.1162V9.15527e-05ZM4.11621 2.00009V9.15527e-05H1.999C1.44699 9.15527e-05 0.975824 0.195256 0.585493 0.585586C0.195164 0.975916 -9.93413e-09 1.44708 0 1.99909V18.0011C0 18.5531 0.195165 19.0243 0.585494 19.4146C0.975823 19.8049 1.44699 20.0001 1.999 20.0001H4.11621V18.0001H2V16.0001H0.0161133V12.0001H2V8.00009H0.0161133V4.00009H2V2.00009H4.11621ZM8.11621 18.0001V20.0001H12.1162V18.0001H8.11621ZM16.1162 18.0001V20.0001H18.001C18.553 20.0001 19.0242 19.8049 19.4145 19.4146C19.8048 19.0243 20 18.5531 20 18.0011V16.0001H18V18.0001H16.1162ZM20 12.0001V8.00009H18.1162V12.0001H20Z" fill="white"/>
</svg>
