<svg width="20" height="20" viewBox="0 0 20 20" fill="none" xmlns="http://www.w3.org/2000/svg">
<path fill-rule="evenodd" clip-rule="evenodd" d="M6.4 2.70009V1.80009C6.4 0.805978 7.20589 9.15527e-05 8.2 9.15527e-05H11.8C12.7941 9.15527e-05 13.6 0.805979 13.6 1.80009V2.70009H17.65C18.3956 2.70009 19 3.30451 19 4.05009C19 4.79567 18.3956 5.40009 17.65 5.40009H17.2L16.6805 17.6201C16.5206 18.9799 15.3682 20.0001 13.999 20.0001H6.00097C4.63184 20.0001 3.47944 18.9799 3.31947 17.6201L2.8 5.40009H2.35C1.60442 5.40009 1 4.79567 1 4.05009C1 3.30451 1.60442 2.70009 2.35 2.70009H6.4ZM8.2 1.80009H11.8V2.80009H8.2V1.80009ZM7 7.50009C7 7.22395 7.22386 7.00009 7.5 7.00009C7.77614 7.00009 8 7.22395 8 7.50009V16.5001C8 16.7762 7.77614 17.0001 7.5 17.0001C7.22386 17.0001 7 16.7762 7 16.5001V7.50009ZM12.5 7.00009C12.2239 7.00009 12 7.22395 12 7.50009V16.5001C12 16.7762 12.2239 17.0001 12.5 17.0001C12.7761 17.0001 13 16.7762 13 16.5001V7.50009C13 7.22395 12.7761 7.00009 12.5 7.00009Z" fill="white"/>
</svg>
