<?xml version="1.0" encoding="utf-8"?>
<svg width="20px" height="20px" viewBox="0 0 20 20" version="1.1" xmlns:xlink="http://www.w3.org/1999/xlink" xmlns="http://www.w3.org/2000/svg">
  <defs>
    <path d="M0 0L20 0L20 20L0 20L0 0Z" id="path_1" />
    <clipPath id="mask_1">
      <use xlink:href="#path_1" />
    </clipPath>
  </defs>
  <g id="greyboardiconsdelete">
    <g id="delete">
      <path d="M0 0L20 0L20 20L0 20L0 0Z" id="Background" fill="#FFFFFF" fill-opacity="0" fill-rule="evenodd" stroke="none" />
      <g clip-path="url(#mask_1)">
        <path d="M6.4 2.7L6.4 1.8C6.4 0.805887 7.20589 0 8.2 0L11.8 0C12.7941 0 13.6 0.805888 13.6 1.8L13.6 2.7L17.65 2.7C18.3956 2.7 19 3.30442 19 4.05C19 4.79558 18.3956 5.4 17.65 5.4L17.2 5.4L16.6805 17.62C16.5206 18.9798 15.3682 20 13.999 20L6.00097 20C4.63184 20 3.47944 18.9798 3.31947 17.62L2.8 5.4L2.35 5.4C1.60442 5.4 1 4.79558 1 4.05C1 3.30442 1.60442 2.7 2.35 2.7L6.4 2.7L6.4 2.7ZM8.2 1.8L11.8 1.8L11.8 2.8L8.2 2.8L8.2 1.8L8.2 1.8ZM7 7.5C7 7.22386 7.22386 7 7.5 7C7.77614 7 8 7.22386 8 7.5L8 16.5C8 16.7761 7.77614 17 7.5 17C7.22386 17 7 16.7761 7 16.5L7 7.5L7 7.5ZM12.5 7C12.2239 7 12 7.22386 12 7.5L12 16.5C12 16.7761 12.2239 17 12.5 17C12.7761 17 13 16.7761 13 16.5L13 7.5C13 7.22386 12.7761 7 12.5 7L12.5 7Z" id="Shape" fill="#FFFFFF" fill-rule="evenodd" stroke="none" />
      </g>
    </g>
  </g>
</svg>