<?xml version="1.0" encoding="utf-8"?>
<svg width="20px" height="20px" viewBox="0 0 20 20" version="1.1" xmlns:xlink="http://www.w3.org/1999/xlink" xmlns="http://www.w3.org/2000/svg">
  <defs>
    <path d="M0 0L20 0L20 20L0 20L0 0Z" id="path_1" />
    <clipPath id="mask_1">
      <use xlink:href="#path_1" />
    </clipPath>
  </defs>
  <g id="greyboardiconsellipse">
    <g id="ellipse">
      <path d="M0 0L20 0L20 20L0 20L0 0Z" id="Background" fill="#FFFFFF" fill-opacity="0" fill-rule="evenodd" stroke="none" />
      <g clip-path="url(#mask_1)">
        <path d="M20 10C20 12.1889 19.0262 14.0725 17.0785 15.6509C15.146 17.217 12.7865 18 10 18C7.21351 18 4.85403 17.217 2.92157 15.6509C0.973857 14.0725 2.54313e-06 12.1889 3.8147e-06 10C1.27157e-06 7.81113 0.973856 5.92749 2.92157 4.34908C4.85403 2.78303 7.21351 2 10 2C12.7865 2 15.146 2.78303 17.0785 4.34908C19.0262 5.92749 20 7.81113 20 10L20 10ZM17 10C17 8.76462 16.3966 7.6579 15.1896 6.67982C13.8077 5.55994 12.0779 5 10 5C7.92216 5 6.19229 5.55994 4.81038 6.67982C3.60346 7.6579 3 8.76463 3 10C3 11.2354 3.60346 12.3421 4.81039 13.3202C6.19229 14.4401 7.92216 15 10 15C12.0779 15 13.8077 14.4401 15.1896 13.3202C16.3966 12.3421 17 11.2354 17 10L17 10Z" id="Vector" fill="#FFFFFF" fill-rule="evenodd" stroke="none" />
      </g>
    </g>
  </g>
</svg>