<svg width="20" height="20" viewBox="0 0 20 20" fill="none" xmlns="http://www.w3.org/2000/svg">
<path fill-rule="evenodd" clip-rule="evenodd" d="M20 10.0001C20 12.189 19.0262 14.0726 17.0785 15.651C15.146 17.2171 12.7865 18.0001 10 18.0001C7.21351 18.0001 4.85403 17.2171 2.92157 15.651C0.973853 14.0726 -1.27156e-06 12.189 0 10.0001C-2.54312e-06 7.81122 0.973852 5.92758 2.92157 4.34917C4.85403 2.78312 7.21351 2.00009 10 2.00009C12.7865 2.00009 15.146 2.78312 17.0785 4.34917C19.0262 5.92758 20 7.81122 20 10.0001ZM17 10.0001C17 8.76471 16.3966 7.65799 15.1896 6.67991C13.8077 5.56003 12.0779 5.00009 10 5.00009C7.92216 5.00009 6.19229 5.56003 4.81038 6.67991C3.60346 7.65799 3 8.76472 3 10.0001C3 11.2355 3.60346 12.3422 4.81039 13.3203C6.19229 14.4402 7.92216 15.0001 10 15.0001C12.0779 15.0001 13.8077 14.4402 15.1896 13.3203C16.3966 12.3422 17 11.2355 17 10.0001Z" fill="white"/>
</svg>
