<?xml version="1.0" encoding="utf-8"?>
<svg width="20px" height="20px" viewBox="0 0 20 20" version="1.1" xmlns:xlink="http://www.w3.org/1999/xlink" xmlns="http://www.w3.org/2000/svg">
  <defs>
    <path d="M0 0L20 0L20 20L0 20L0 0Z" id="path_1" />
    <clipPath id="mask_1">
      <use xlink:href="#path_1" />
    </clipPath>
  </defs>
  <g id="greyboardiconseraser">
    <g id="eraser">
      <path d="M0 0L20 0L20 20L0 20L0 0Z" id="Background" fill="#FFFFFF" fill-opacity="0" fill-rule="evenodd" stroke="none" />
      <g clip-path="url(#mask_1)">
        <path d="M9.97522 2.01049L0.742059 11.2437C-0.247353 12.2331 -0.247353 13.836 0.742059 14.8254L3.90818 17.9915C4.3831 18.4664 5.0282 18.7316 5.701 18.7316L18.7335 18.7316C19.434 18.7316 20 18.1656 20 17.4651C20 16.7646 19.434 16.1987 18.7335 16.1987L13.8221 16.1987L18.9947 11.03C19.9842 10.0406 19.9842 8.43772 18.9947 7.44831L13.5609 2.01049C12.5715 1.02108 10.9686 1.02108 9.97922 2.01049L9.97522 2.01049L9.97522 2.01049ZM10.2404 16.2026L5.69704 16.2026L2.53092 13.0365L7.46611 8.10132L12.9039 13.5391L10.2404 16.2026L10.2404 16.2026Z" id="Shape" fill="#FFFFFF" fill-rule="evenodd" stroke="none" />
      </g>
    </g>
  </g>
</svg>