<?xml version="1.0" encoding="utf-8"?>
<svg width="20px" height="20px" viewBox="0 0 20 20" version="1.1" xmlns:xlink="http://www.w3.org/1999/xlink" xmlns="http://www.w3.org/2000/svg">
  <g id="greyboardiconsexport">
    <g id="export">
      <path d="M4 13L5 13.7647C6.79047 11.0351 8.48824 9.57918 11.0294 9.52941L11.0294 12.7059C11.0294 13.2893 11.5705 13.7647 12.2396 13.7647C12.6251 13.7647 12.9544 13.5974 13.1746 13.3507C15.2213 11.2024 20 6.88235 20 6.88235C20 6.88235 15.2213 2.56024 13.1735 0.384353C12.9245 0.139006 12.5892 0.0010231 12.2396 0C11.5705 0 11.0294 0.473294 11.0294 1.05882L11.0294 4.23529C6.09529 4.23529 4 9.15753 4 13ZM10 1L3 1C1.34315 1 0 2.34315 0 4L0 17C0 18.6569 1.34315 20 3 20L16 20C17.6569 20 19 18.6569 19 17L19 9L16.5 11.5L16.5 16.5C16.5 17.0523 16.0523 17.5 15.5 17.5L3.5 17.5C2.94772 17.5 2.5 17.0523 2.5 16.5L2.5 4.5C2.5 3.94772 2.94772 3.5 3.5 3.5L10 3.5L10 1Z" id="Shape-Union" fill="#FFFFFF" fill-rule="evenodd" stroke="none" />
    </g>
  </g>
</svg>