<?xml version="1.0" encoding="utf-8"?>
<svg width="20px" height="20px" viewBox="0 0 20 20" version="1.1" xmlns:xlink="http://www.w3.org/1999/xlink" xmlns="http://www.w3.org/2000/svg">
  <defs>
    <path d="M0 0L20 0L20 20L0 20L0 0Z" id="path_1" />
    <clipPath id="mask_1">
      <use xlink:href="#path_1" />
    </clipPath>
  </defs>
  <g id="greyboardiconshand">
    <g id="hand">
      <path d="M0 0L20 0L20 20L0 20L0 0Z" id="Background" fill="#FFFFFF" fill-opacity="0" fill-rule="evenodd" stroke="none" />
      <g clip-path="url(#mask_1)">
        <path d="M17.2181 5.00028C16.3421 4.98352 15.6251 5.71719 15.6251 6.59336L15.6251 10L15.3126 10L15.3126 3.1168C15.3126 2.24063 14.5956 1.50696 13.7196 1.52372C12.8707 1.53997 12.1876 2.23317 12.1876 3.08594L12.1876 10L11.8751 10L11.8751 1.59337C11.8751 0.717195 11.1581 -0.0164763 10.282 0.000281515C9.43319 0.0165315 8.75006 0.709734 8.75006 1.56251L8.75006 10L8.43756 10L8.43756 3.15587C8.43756 2.27969 7.72053 1.54602 6.84455 1.56278C5.99569 1.57903 5.31256 2.27223 5.31256 3.12501L5.31256 12.3434L4.07631 10.6435C3.56877 9.94559 2.59159 9.79125 1.89362 10.2988C1.19577 10.8064 1.04147 11.7836 1.54901 12.4815L6.4553 19.2278C6.62924 19.467 6.8573 19.6616 7.12084 19.7958C7.38437 19.93 7.67592 20 7.97166 20L15.69 20C16.5601 20 17.3159 19.4014 17.5152 18.5545L18.5507 14.1537C18.6831 13.5907 18.75 13.0143 18.75 12.4359L18.75 6.56251C18.7501 5.70973 18.067 5.01653 17.2181 5.00028L17.2181 5.00028Z" id="Shape" fill="#FFFFFF" fill-rule="evenodd" stroke="none" />
      </g>
    </g>
  </g>
</svg>