<svg width="20" height="20" viewBox="0 0 20 20" fill="none" xmlns="http://www.w3.org/2000/svg">
<path fill-rule="evenodd" clip-rule="evenodd" d="M10.5276 1.44379C10.0041 0.920244 9.31553 0.594069 8.57887 0.520569L3.52478 0.016324C1.50967 -0.184699 -0.184792 1.50976 0.0162326 3.52487L0.520478 8.57896C0.593979 9.31566 0.920148 10.0042 1.4437 10.5278L9.97703 19.0611C11.229 20.3131 13.259 20.3131 14.5111 19.0611L19.0609 14.5112C20.313 13.2591 20.313 11.2292 19.0609 9.97708L10.5276 1.44379ZM2.45141 4.70282C3.07744 5.32886 4.09243 5.32885 4.71846 4.70282C5.34449 4.07679 5.3445 3.0618 4.71846 2.43576C4.09243 1.80973 3.07744 1.80973 2.45141 2.43576C1.82538 3.0618 1.82537 4.07679 2.45141 4.70282Z" fill="white"/>
</svg>
