<?xml version="1.0" encoding="utf-8"?>
<svg width="20px" height="20px" viewBox="0 0 20 20" version="1.1" xmlns:xlink="http://www.w3.org/1999/xlink" xmlns="http://www.w3.org/2000/svg">
  <g id="greyboardiconslassoSelect">
    <path d="M0.074646 8.42108C0.0253296 8.11923 0 7.81184 0 7.5C0 5.82592 0.731323 4.27995 1.96741 3.03198L3.38837 4.43939C2.46277 5.37389 2 6.39409 2 7.5C2 7.70108 2.01617 7.90074 2.04852 8.09899L0.074646 8.42108L0.074646 8.42108ZM15.102 13.9518C13.6597 14.5947 11.9834 14.9734 10.1919 14.9986L10.1636 12.9988C11.6534 12.9778 13.0281 12.6866 14.2877 12.1251L15.102 13.9518L15.102 13.9518ZM19.9811 7.03571C19.9937 7.18927 20 7.34408 20 7.5C20 9.02704 19.3915 10.4475 18.3464 11.6324L16.8465 10.3095C17.6155 9.43758 18 8.50109 18 7.5C17.9999 7.39914 17.9958 7.29852 17.9877 7.19813L19.9811 7.03571L19.9811 7.03571ZM14.2274 0.701133C15.9396 1.30101 17.3878 2.25401 18.4054 3.43522L16.8901 4.74058C16.0779 3.79778 14.9699 3.08047 13.5661 2.58865L14.2274 0.701133L14.2274 0.701133ZM10.2856 0.00300121L10.2436 2.00256C10.1624 2.00085 10.0812 2 10 2C8.59668 2 7.28564 2.2419 6.06683 2.72571L5.32892 0.866802C6.72314 0.313395 8.31274 0 10 0C10.0955 0 10.1907 0.00100517 10.2856 0.00300121L10.2856 0.00300121Z" id="Vector" fill="#FFFFFF" fill-rule="evenodd" stroke="none" />
    <path d="M2 12.5C2 11.1193 3.11929 10 4.5 10C5.88071 10 7 11.1193 7 12.5C7 13.8807 5.88071 15 4.5 15C3.11929 15 2 13.8807 2 12.5Z" id="Oval-2-Copy" fill="#FFFFFF" fill-rule="evenodd" stroke="none" />
    <path d="M5.00002 13C5.00002 13 1.14847 15.354 3.00002 19" id="Vector" fill="none" fill-rule="evenodd" stroke="#FFFFFF" stroke-width="2" stroke-linecap="round" />
  </g>
</svg>