<?xml version="1.0" encoding="utf-8"?>
<svg width="20px" height="20px" viewBox="0 0 20 20" version="1.1" xmlns:xlink="http://www.w3.org/1999/xlink" xmlns="http://www.w3.org/2000/svg">
  <defs>
    <path d="M0 0L20 0L20 20L0 20L0 0Z" id="path_1" />
    <clipPath id="mask_1">
      <use xlink:href="#path_1" />
    </clipPath>
  </defs>
  <g id="greyboardiconslayer">
    <g id="layer">
      <path d="M0 0L20 0L20 20L0 20L0 0Z" id="Background" fill="#FFFFFF" fill-opacity="0" fill-rule="evenodd" stroke="none" />
      <g clip-path="url(#mask_1)">
        <path d="M10.6718 17.2571C10.2721 17.568 9.70569 17.568 9.30591 17.2571L2.47637 11.9489C2.2829 11.7978 2.04446 11.7157 1.79897 11.7157C1.55348 11.7157 1.31504 11.7978 1.12157 11.9489C0.989288 12.0525 0.882321 12.1848 0.808756 12.3358C0.73519 12.4869 0.69696 12.6527 0.69696 12.8207C0.69696 12.9887 0.73519 13.1544 0.808756 13.3055C0.882321 13.4565 0.989288 13.5888 1.12157 13.6924L8.62851 19.5336C9.42806 20.1555 10.5497 20.1555 11.3603 19.5336L18.8673 13.6924C19.4336 13.2482 19.4336 12.3931 18.8673 11.9489L18.8562 11.9378C18.6627 11.7867 18.4243 11.7046 18.1788 11.7046C17.9333 11.7046 17.6948 11.7867 17.5014 11.9378L10.6718 17.2571L10.6718 17.2571ZM11.3714 13.9034L18.8784 8.06219C19.4447 7.61799 19.4447 6.7518 18.8784 6.30761L11.3714 0.466408C10.5719 -0.155469 9.45027 -0.155469 8.63961 0.466408L1.13267 6.31871C0.56632 6.76291 0.56632 7.62909 1.13267 8.07329L8.63961 13.9145C9.43917 14.5364 10.5719 14.5364 11.3714 13.9034L11.3714 13.9034Z" id="Shape" fill="#FFFFFF" fill-rule="evenodd" stroke="none" />
      </g>
    </g>
  </g>
</svg>