<svg width="20" height="20" viewBox="0 0 20 20" fill="none" xmlns="http://www.w3.org/2000/svg">
<path fill-rule="evenodd" clip-rule="evenodd" d="M14.1959 2.27972C13.3044 0.907583 11.7582 9.15527e-05 10 9.15527e-05C7.23858 9.15527e-05 5 2.23867 5 5.00009V7.00009C3.34315 7.00009 2 8.34324 2 10.0001V17.0001C2 18.657 3.34315 20.0001 5 20.0001H15C16.6568 20.0001 18 18.657 18 17.0001V10.0001C18 8.34324 16.6568 7.00009 15 7.00009H7V5.00009C7 3.34324 8.34315 2.00009 10 2.00009C11.2578 2.00009 12 2.50009 13 3.50009L14.1959 2.27972ZM9 13.0001C9 12.4478 9.44772 12.0001 10 12.0001C10.5523 12.0001 11 12.4478 11 13.0001V16.0001C11 16.5524 10.5523 17.0001 10 17.0001C9.44772 17.0001 9 16.5524 9 16.0001V13.0001Z" fill="white"/>
</svg>
