<svg width="22" height="23" viewBox="0 0 22 23" fill="none" xmlns="http://www.w3.org/2000/svg">
<path d="M2.5 3C1.67157 3 1 3.67157 1 4.5V19.5C1 20.3284 1.67157 21 2.5 21H9.82258C10.651 21 11.3226 20.3284 11.3226 19.5C11.3226 18.6716 10.651 18 9.82258 18H4V6H9.82258C10.651 6 11.3226 5.32843 11.3226 4.5C11.3226 3.67157 10.651 3 9.82258 3H2.5Z" fill="white"/>
<path d="M12.3298 18.8442C11.669 18.1879 11.6691 17.1238 12.3299 16.4675L14.7138 14.0999L7.19214 14.0999C6.25762 14.0998 5.50002 13.3474 5.5 12.4193C5.50005 11.4911 6.2576 10.7388 7.19219 10.7387L14.7212 10.7388L12.335 8.3689C11.6741 7.71259 11.6742 6.64852 12.335 5.99223C12.9958 5.33593 14.0672 5.33592 14.728 5.99223L19.9912 11.2194L19.9992 11.2273L20.0078 11.2359C20.6652 11.8925 20.6641 12.954 20.0044 13.6092C19.9665 13.6468 19.9273 13.6823 19.8868 13.7156L14.7229 18.8442C14.0621 19.5005 12.9907 19.5005 12.3298 18.8442Z" fill="white"/>
</svg>
