<?xml version="1.0" encoding="utf-8"?>
<svg width="20px" height="20px" viewBox="0 0 20 20" version="1.1" xmlns:xlink="http://www.w3.org/1999/xlink" xmlns="http://www.w3.org/2000/svg">
  <defs>
    <path d="M0 0L20 0L20 20L0 20L0 0Z" id="path_1" />
    <clipPath id="mask_1">
      <use xlink:href="#path_1" />
    </clipPath>
  </defs>
  <g id="greyboardiconsmenu">
    <g id="menu">
      <path d="M0 0L20 0L20 20L0 20L0 0Z" id="Background" fill="#FFFFFF" fill-opacity="0" fill-rule="evenodd" stroke="none" />
      <g clip-path="url(#mask_1)">
        <path d="M0 6C0 5.17157 0.671631 4.5 1.5 4.5L18.5 4.5C19.3284 4.5 20 5.17157 20 6C20 6.82843 19.3284 7.5 18.5 7.5L1.5 7.5C0.671631 7.5 0 6.82843 0 6ZM0 14C0 13.1716 0.671631 12.5 1.5 12.5L18.5 12.5C19.3284 12.5 20 13.1716 20 14C20 14.8284 19.3284 15.5 18.5 15.5L1.5 15.5C0.671631 15.5 0 14.8284 0 14Z" id="Shape-Union" fill="#FFFFFF" fill-rule="evenodd" stroke="none" />
      </g>
    </g>
  </g>
</svg>