<?xml version="1.0" encoding="utf-8"?>
<svg width="20px" height="20px" viewBox="0 0 20 20" version="1.1" xmlns:xlink="http://www.w3.org/1999/xlink" xmlns="http://www.w3.org/2000/svg">
  <defs>
    <path d="M0 0L20 0L20 20L0 20L0 0Z" id="path_1" />
    <clipPath id="mask_1">
      <use xlink:href="#path_1" />
    </clipPath>
  </defs>
  <g id="greyboardiconspalette">
    <g id="palette">
      <path d="M0 0L20 0L20 20L0 20L0 0Z" id="Background" fill="#FFFFFF" fill-opacity="0" fill-rule="evenodd" stroke="none" />
      <g clip-path="url(#mask_1)">
        <path d="M10 0C15.523 0 20 4.477 20 10C20 10.649 19.938 11.284 19.82 11.9C19.447 13.835 17.56 14.691 15.913 14.495L15.738 14.47L13.998 14.18C13.7955 14.1462 13.5879 14.1613 13.3924 14.2239C13.1969 14.2865 13.0192 14.3949 12.874 14.54C12.504 14.91 12.327 15.419 12.576 15.916C12.999 16.762 13.005 17.728 12.631 18.519C12.131 19.58 11.11 20 10 20C4.477 20 0 15.523 0 10C0 4.477 4.477 0 10 0L10 0ZM5.5 9C5.30302 9 5.10796 9.0388 4.92598 9.11418C4.74399 9.18956 4.57863 9.30005 4.43934 9.43934C4.30005 9.57863 4.18956 9.74399 4.11418 9.92597C4.0388 10.108 4 10.303 4 10.5C4 10.697 4.0388 10.892 4.11418 11.074C4.18956 11.256 4.30005 11.4214 4.43934 11.5607C4.57863 11.6999 4.74399 11.8104 4.92598 11.8858C5.10796 11.9612 5.30302 12 5.5 12C5.89783 12 6.27936 11.842 6.56066 11.5607C6.84197 11.2794 7 10.8978 7 10.5C7 10.1022 6.84197 9.72064 6.56066 9.43934C6.27936 9.15804 5.89783 9 5.5 9L5.5 9ZM12.5 5C12.1021 5 11.7206 5.15804 11.4393 5.43934C11.158 5.72064 11 6.10218 11 6.5C11 6.89782 11.158 7.27936 11.4393 7.56066C11.7206 7.84196 12.1021 8 12.5 8C12.8978 8 13.2793 7.84196 13.5606 7.56066C13.8419 7.27936 14 6.89782 14 6.5C14 6.10218 13.8419 5.72064 13.5606 5.43934C13.2793 5.15804 12.8978 5 12.5 5L12.5 5ZM7.5 5C7.10218 5 6.72065 5.15804 6.43934 5.43934C6.15804 5.72064 6 6.10218 6 6.5C6 6.89782 6.15804 7.27936 6.43934 7.56066C6.72065 7.84196 7.10218 8 7.5 8C7.89783 8 8.27936 7.84196 8.56066 7.56066C8.84197 7.27936 9 6.89782 9 6.5C9 6.10218 8.84197 5.72064 8.56066 5.43934C8.27936 5.15804 7.89783 5 7.5 5L7.5 5Z" id="Shape" fill="#FFFFFF" fill-rule="evenodd" stroke="none" />
      </g>
    </g>
  </g>
</svg>