<?xml version="1.0" encoding="utf-8"?>
<svg width="20px" height="20px" viewBox="0 0 20 20" version="1.1" xmlns:xlink="http://www.w3.org/1999/xlink" xmlns="http://www.w3.org/2000/svg">
  <defs>
    <path d="M0 0L20 0L20 20L0 20L0 0Z" id="path_1" />
    <clipPath id="mask_1">
      <use xlink:href="#path_1" />
    </clipPath>
  </defs>
  <g id="greyboardiconspencilArrow">
    <g id="pencilArrow">
      <path d="M0 0L20 0L20 20L0 20L0 0Z" id="Background" fill="#FFFFFF" fill-opacity="0" fill-rule="evenodd" stroke="none" />
      <g clip-path="url(#mask_1)">
        <path d="M15.969 13.0019C15.969 13.8373 16.6462 14.5146 17.4816 14.5146C18.317 14.5146 18.9943 13.8373 18.9943 13.0019L18.9943 2.65488C18.9987 2.60807 19.0009 2.56064 19.0009 2.51269C19.0009 2.42203 18.9929 2.33324 18.9776 2.24698C18.9273 1.95122 18.7879 1.66765 18.5597 1.43936C18.2653 1.14502 17.8791 0.998581 17.4933 1.00003L17.4893 1.00002C17.4868 1.00001 17.4842 1 17.4816 1C17.4792 1 17.4767 1.00001 17.4743 1.00002L6.99902 1.00002C6.1636 1.00002 5.48635 1.67726 5.48635 2.51268C5.48635 3.34811 6.1636 4.02535 6.99902 4.02535L13.8523 4.02536L11.9383 5.93935C10.6507 7.22702 10.1917 8.66964 9.91881 9.76121C9.86058 9.9941 9.81583 10.1868 9.77645 10.3564C9.71375 10.6264 9.66468 10.8376 9.5966 11.0589C9.50636 11.3522 9.44308 11.433 9.43781 11.4398C9.11847 11.7591 8.89009 11.8364 8.75182 11.8594C8.5971 11.8851 8.38857 11.8688 8.08266 11.7521C7.76658 11.6317 7.42133 11.4335 7.01479 11.1688C6.90705 11.0987 6.78299 11.0153 6.65088 10.9266C6.35917 10.7307 6.02823 10.5085 5.74712 10.3433C5.35069 10.1105 4.70358 9.76634 3.96403 9.76799C3.54819 9.76892 3.11786 9.87802 2.72331 10.1353C2.3431 10.3832 2.07296 10.7182 1.87901 11.0584C1.51197 11.7023 1.31239 12.5536 1.18922 13.5304C1.0617 14.5417 0.999023 15.8455 0.999023 17.5C0.999023 18.3284 1.67059 19 2.49902 19C3.32745 19 3.99902 18.3284 3.99902 17.5C3.99902 15.9045 4.06037 14.7406 4.16564 13.9058C4.2166 13.5016 4.27456 13.2048 4.32883 12.9908C4.49978 13.0955 4.66647 13.2079 4.86352 13.3407C5.01251 13.4411 5.17906 13.5534 5.37776 13.6828C5.82999 13.9773 6.39124 14.318 7.01411 14.5554C7.64717 14.7967 8.41006 14.9574 9.24397 14.8187C10.0943 14.6773 10.8712 14.2491 11.5596 13.5607C12.0692 13.0511 12.3146 12.4265 12.4639 11.9411C12.561 11.6256 12.6522 11.2363 12.7321 10.8951C12.7667 10.7476 12.7993 10.6084 12.8292 10.4888C13.0563 9.58039 13.3473 8.77301 14.0596 8.06068L15.969 6.15138L15.969 13.0019L15.969 13.0019Z" id="Shape" fill="#FFFFFF" fill-rule="evenodd" stroke="none" />
      </g>
    </g>
  </g>
</svg>