<svg width="20" height="20" viewBox="0 0 20 20" fill="none" xmlns="http://www.w3.org/2000/svg">
<path fill-rule="evenodd" clip-rule="evenodd" d="M16.6316 13.3342C16.6316 14.2623 17.3839 15.0148 18.3121 15.0148C19.2402 15.0148 19.9927 14.2623 19.9927 13.3342V1.83868C19.9976 1.78668 20 1.73398 20 1.68071C20 1.57999 19.9911 1.48134 19.9741 1.38551C19.9182 1.05692 19.7634 0.741874 19.5098 0.488245C19.1828 0.161235 18.7537 -0.0014582 18.3251 0.000151631L18.3206 0.000140506C18.3178 0.000129396 18.315 0.000118256 18.3121 0.000118256C18.3094 0.000118256 18.3066 0.000129396 18.304 0.000140506H6.66597C5.73782 0.000140506 4.9854 0.752551 4.9854 1.6807C4.9854 2.60886 5.73782 3.36127 6.66597 3.36127L14.2799 3.36128L12.1535 5.48771C10.723 6.91831 10.213 8.52105 9.90984 9.73378C9.84515 9.99252 9.79543 10.2066 9.75168 10.395C9.68202 10.695 9.6275 10.9296 9.55187 11.1755C9.45161 11.5014 9.38131 11.5911 9.37545 11.5987C9.02067 11.9534 8.76694 12.0393 8.61332 12.0649C8.44143 12.0934 8.20975 12.0753 7.86989 11.9457C7.51872 11.8119 7.13515 11.5917 6.68349 11.2976C6.56379 11.2197 6.42596 11.1271 6.27919 11.0285C5.9551 10.8109 5.58743 10.564 5.27511 10.3805C4.83468 10.1218 4.11575 9.73948 3.29411 9.74131C2.83211 9.74235 2.35402 9.86356 1.91567 10.1494C1.49326 10.4248 1.19314 10.797 0.977661 11.175C0.569882 11.8903 0.348149 12.8361 0.211308 13.9213C0.0696338 15.0449 0 16.4934 0 18.3315C0 19.2519 0.746108 19.998 1.66649 19.998C2.58687 19.998 3.33298 19.2519 3.33298 18.3315C3.33298 16.5589 3.40114 15.2659 3.5181 14.3384C3.57471 13.8893 3.63911 13.5596 3.6994 13.3218C3.88932 13.4382 4.07452 13.563 4.29344 13.7106C4.45897 13.8221 4.644 13.9469 4.86476 14.0906C5.36718 14.4178 5.99073 14.7964 6.68273 15.0601C7.38606 15.3282 8.23363 15.5067 9.1601 15.3526C10.1048 15.1955 10.9679 14.7198 11.7328 13.955C12.2989 13.3888 12.5716 12.6949 12.7374 12.1556C12.8453 11.8051 12.9466 11.3726 13.0354 10.9935C13.0738 10.8297 13.1101 10.675 13.1433 10.5421C13.3956 9.53289 13.7189 8.6359 14.5102 7.8445L16.6316 5.72328V13.3342Z" fill="white"/>
</svg>
