<?xml version="1.0" encoding="utf-8"?>
<svg width="20px" height="20px" viewBox="0 0 20 20" version="1.1" xmlns:xlink="http://www.w3.org/1999/xlink" xmlns="http://www.w3.org/2000/svg">
  <defs>
    <path d="M0 0L20 0L20 20L0 20L0 0Z" id="path_1" />
    <clipPath id="mask_1">
      <use xlink:href="#path_1" />
    </clipPath>
  </defs>
  <g id="greyboardiconspeople">
    <g id="people">
      <path d="M0 0L20 0L20 20L0 20L0 0Z" id="Background" fill="#FFFFFF" fill-opacity="0" fill-rule="evenodd" stroke="none" />
      <g clip-path="url(#mask_1)">
        <path d="M6.17683 9.70586C7.19096 9.70586 8.16354 9.303 8.88064 8.58591C9.59773 7.86881 10.0006 6.89623 10.0006 5.8821C10.0006 4.86798 9.59773 3.89539 8.88064 3.1783C8.16354 2.46121 7.19096 2.05835 6.17683 2.05835C5.16271 2.05835 4.19012 2.46121 3.47303 3.1783C2.75594 3.89539 2.35308 4.86798 2.35308 5.8821C2.35308 6.89623 2.75594 7.86881 3.47303 8.58591C4.19012 9.303 5.16271 9.70586 6.17683 9.70586L6.17683 9.70586ZM12.8678 15.7592C13.4914 16.0145 14.2844 16.1768 15.2938 16.1768C20 16.1768 20 12.6472 20 12.6472C20 12.1794 19.8142 11.7306 19.4835 11.3997C19.1528 11.0688 18.7042 10.8827 18.2364 10.8824L12.7913 10.8824C13.2537 11.4424 13.5314 12.1589 13.5314 12.9413L13.5314 13.3602C13.529 13.4593 13.5223 13.5582 13.5114 13.6567C13.432 14.3918 13.214 15.1052 12.869 15.7592L12.8678 15.7592L12.8678 15.7592ZM18.2364 6.76451C18.2364 7.5446 17.9265 8.29275 17.3749 8.84436C16.8233 9.39597 16.0751 9.70586 15.295 9.70586C14.5149 9.70586 13.7668 9.39597 13.2152 8.84436C12.6636 8.29275 12.3537 7.5446 12.3537 6.76451C12.3537 5.98441 12.6636 5.23627 13.2152 4.68466C13.7668 4.13305 14.5149 3.82316 15.295 3.82316C16.0751 3.82316 16.8233 4.13305 17.3749 4.68466C17.9265 5.23627 18.2364 5.98441 18.2364 6.76451L18.2364 6.76451ZM0 13.2355C0 12.6114 0.247913 12.0129 0.689201 11.5716C1.13049 11.1303 1.729 10.8824 2.35308 10.8824L10.0006 10.8824C10.6247 10.8824 11.2232 11.1303 11.6645 11.5716C12.1058 12.0129 12.3537 12.6114 12.3537 13.2355C12.3537 13.2355 12.3537 17.9416 6.17683 17.9416C0 17.9416 0 13.2355 0 13.2355L0 13.2355ZM14.5267 13.3602L13.5267 14.3602L14.1839 13.3602L14.5267 13.3602L14.5267 13.3602Z" id="Shape" fill="#FFFFFF" fill-rule="evenodd" stroke="none" />
      </g>
    </g>
  </g>
</svg>