<?xml version="1.0" encoding="utf-8"?>
<svg width="20px" height="20px" viewBox="0 0 20 20" version="1.1" xmlns:xlink="http://www.w3.org/1999/xlink" xmlns="http://www.w3.org/2000/svg">
  <defs>
    <path d="M0 0L20 0L20 20L0 20L0 0Z" id="path_1" />
    <clipPath id="mask_1">
      <use xlink:href="#path_1" />
    </clipPath>
  </defs>
  <g id="greyboardiconsplus">
    <g id="plus">
      <path d="M0 0L20 0L20 20L0 20L0 0Z" id="Background" fill="#FFFFFF" fill-opacity="0" fill-rule="evenodd" stroke="none" />
      <g clip-path="url(#mask_1)">
        <path d="M10 1C9.17157 1 8.5 1.67157 8.5 2.5L8.5 8.5L2.5 8.5C1.67157 8.5 1 9.17157 1 10C1 10.8284 1.67157 11.5 2.5 11.5L8.5 11.5L8.5 17.5C8.5 18.3284 9.17157 19 10 19C10.8284 19 11.5 18.3284 11.5 17.5L11.5 11.5L17.5 11.5C18.3284 11.5 19 10.8284 19 10C19 9.17157 18.3284 8.5 17.5 8.5L11.5 8.5L11.5 2.5C11.5 1.67157 10.8284 1 10 1L10 1Z" id="Shape" fill="#FFFFFF" fill-rule="evenodd" stroke="none" />
      </g>
    </g>
  </g>
</svg>