<?xml version="1.0" encoding="utf-8"?>
<svg width="20px" height="20px" viewBox="0 0 20 20" version="1.1" xmlns:xlink="http://www.w3.org/1999/xlink" xmlns="http://www.w3.org/2000/svg">
  <defs>
    <path d="M0 0L20 0L20 20L0 20L0 0Z" id="path_1" />
    <clipPath id="mask_1">
      <use xlink:href="#path_1" />
    </clipPath>
  </defs>
  <g id="greyboardiconsredo">
    <g id="redo">
      <path d="M0 0L20 0L20 20L0 20L0 0Z" id="Background" fill="#FFFFFF" fill-opacity="0" fill-rule="evenodd" stroke="none" />
      <g clip-path="url(#mask_1)">
        <path d="M2.38096 15.2152L0 14.3469C4.28571 2.07377 12.3518 3.89686 15.8002 7.34526L18.0202 5.12526C18.4294 4.71604 19.1384 4.7634 19.606 5.23108C19.8496 5.47612 19.9875 5.80687 19.9901 6.15238C20.0124 9.14088 19.9901 15.2152 19.9901 15.2152C19.9901 15.2152 13.8453 15.2152 10.9288 15.2152C10.6025 15.2337 10.2554 15.1204 9.98604 14.8511C9.51836 14.3834 9.47248 13.673 9.88022 13.2652L12.1002 11.0453C10.2894 9.30404 5.71429 9.13254 2.38096 15.2152L2.38096 15.2152Z" id="Shape" fill="#FFFFFF" fill-rule="evenodd" stroke="none" />
      </g>
    </g>
  </g>
</svg>