<?xml version="1.0" encoding="utf-8"?>
<svg width="20px" height="20px" viewBox="0 0 20 20" version="1.1" xmlns:xlink="http://www.w3.org/1999/xlink" xmlns="http://www.w3.org/2000/svg">
  <g id="greyboardiconssave">
    <g id="save">
      <path d="M5 0L5 4.16667C5 4.82971 5.26339 5.46559 5.73223 5.93443C6.20107 6.40328 6.83696 6.66667 7.5 6.66667L10.8333 6.66667C11.4964 6.66667 12.1323 6.40328 12.6011 5.93443C13.0699 5.46559 13.3333 4.82971 13.3333 4.16667L13.3333 0L13.965 0C14.849 0.000188791 15.6967 0.351502 16.3217 0.976667L19.0233 3.67833C19.6485 4.30331 19.9998 5.15102 20 6.035L20 16.6667C20 17.5507 19.6488 18.3986 19.0237 19.0237C18.3986 19.6488 17.5507 20 16.6667 20L16.6667 12.5C16.6667 11.837 16.4033 11.2011 15.9344 10.7322C15.4656 10.2634 14.8297 10 14.1667 10L5.83333 10C4.455 10 3.33333 11.115 3.33333 12.4967L3.33333 20C2.44928 20 1.60143 19.6488 0.976311 19.0237C0.351189 18.3986 0 17.5507 0 16.6667L0 3.33333C0 2.44928 0.351189 1.60143 0.976311 0.976311C1.60143 0.351189 2.44928 0 3.33333 0L5 0L5 0ZM6.66667 0L6.66667 4.16667C6.66667 4.38768 6.75446 4.59964 6.91074 4.75592C7.06702 4.9122 7.27899 5 7.5 5L10.8333 5C11.0543 5 11.2663 4.9122 11.4226 4.75592C11.5789 4.59964 11.6667 4.38768 11.6667 4.16667L11.6667 0L6.66667 0L6.66667 0ZM5 20L15 20L15 12.5C15 12.279 14.9122 12.067 14.7559 11.9107C14.5996 11.7545 14.3877 11.6667 14.1667 11.6667L5.83333 11.6667C5.37167 11.6667 5 12.0383 5 12.4967L5 20L5 20Z" id="Shape" fill="#FFFFFF" fill-rule="evenodd" stroke="none" />
    </g>
  </g>
</svg>