<?xml version="1.0" encoding="utf-8"?>
<svg width="20px" height="20px" viewBox="0 0 20 20" version="1.1" xmlns:xlink="http://www.w3.org/1999/xlink" xmlns="http://www.w3.org/2000/svg">
  <defs>
    <path d="M0 0L20 0L20 20L0 20L0 0Z" id="path_1" />
    <clipPath id="mask_1">
      <use xlink:href="#path_1" />
    </clipPath>
  </defs>
  <g id="greyboardiconssettings">
    <g id="settings">
      <path d="M0 0L20 0L20 20L0 20L0 0Z" id="Background" fill="#FFFFFF" fill-opacity="0" fill-rule="evenodd" stroke="none" />
      <g clip-path="url(#mask_1)">
        <path d="M11.8203 20L8.18031 20C7.95225 20 7.73102 19.9221 7.55332 19.7792C7.37561 19.6362 7.25212 19.4368 7.20331 19.214L6.79631 17.33C6.25337 17.0921 5.73855 16.7946 5.26131 16.443L3.42431 17.028C3.20688 17.0973 2.97226 17.0902 2.75943 17.0078C2.5466 16.9254 2.36837 16.7727 2.25431 16.575L0.430312 13.424C0.317457 13.2261 0.275095 12.9958 0.310154 12.7708C0.345214 12.5457 0.455621 12.3392 0.623312 12.185L2.04831 10.885C1.98351 10.2961 1.98351 9.70189 2.04831 9.113L0.623312 7.816C0.455384 7.66177 0.344827 7.45507 0.309761 7.22978C0.274695 7.00449 0.317201 6.77397 0.430312 6.576L2.25031 3.423C2.36436 3.22532 2.5426 3.07259 2.75543 2.99019C2.96826 2.90778 3.20288 2.90066 3.42031 2.97L5.25731 3.555C5.50131 3.375 5.75531 3.207 6.01731 3.055C6.27031 2.913 6.53031 2.784 6.79631 2.669L7.20431 0.787C7.25289 0.564198 7.37615 0.364688 7.55366 0.221549C7.73117 0.0784098 7.95228 0.000239966 8.18031 0L11.8203 0C12.0483 0.000239966 12.2694 0.0784098 12.4469 0.221549C12.6245 0.364688 12.7477 0.564198 12.7963 0.787L13.2083 2.67C13.7505 2.90927 14.2652 3.20668 14.7433 3.557L16.5813 2.972C16.7986 2.90292 17.033 2.91017 17.2456 2.99256C17.4582 3.07495 17.6363 3.22753 17.7503 3.425L19.5703 6.578C19.8023 6.985 19.7223 7.5 19.3773 7.817L17.9523 9.117C18.0171 9.70589 18.0171 10.3001 17.9523 10.889L19.3773 12.189C19.7223 12.507 19.8023 13.021 19.5703 13.428L17.7503 16.581C17.6362 16.7787 17.458 16.9314 17.2452 17.0138C17.0323 17.0962 16.7977 17.1033 16.5803 17.034L14.7433 16.449C14.2664 16.8003 13.7519 17.0975 13.2093 17.335L12.7963 19.214C12.7475 19.4366 12.6242 19.6359 12.4467 19.7788C12.2692 19.9218 12.0482 19.9998 11.8203 20L11.8203 20ZM9.99632 6C8.93545 6 7.91803 6.42143 7.16789 7.17157C6.41774 7.92172 5.99631 8.93913 5.99631 10C5.99631 11.0609 6.41774 12.0783 7.16789 12.8284C7.91803 13.5786 8.93545 14 9.99632 14C11.0572 14 12.0746 13.5786 12.8247 12.8284C13.5749 12.0783 13.9963 11.0609 13.9963 10C13.9963 8.93913 13.5749 7.92172 12.8247 7.17157C12.0746 6.42143 11.0572 6 9.99632 6L9.99632 6Z" id="Shape" fill="#FFFFFF" fill-rule="evenodd" stroke="none" />
      </g>
    </g>
  </g>
</svg>