<?xml version="1.0" encoding="utf-8"?>
<svg width="20px" height="20px" viewBox="0 0 20 20" version="1.1" xmlns:xlink="http://www.w3.org/1999/xlink" xmlns="http://www.w3.org/2000/svg">
  <defs>
    <path d="M0 0L20 0L20 20L0 20L0 0Z" id="path_1" />
    <clipPath id="mask_1">
      <use xlink:href="#path_1" />
    </clipPath>
  </defs>
  <g id="greyboardiconsshapes">
    <g id="shapes">
      <path d="M0 0L20 0L20 20L0 20L0 0Z" id="Background" fill="#FFFFFF" fill-opacity="0" fill-rule="evenodd" stroke="none" />
      <g clip-path="url(#mask_1)">
        <path d="M12.3203 0.605469C12.0977 0.230469 11.6875 0 11.25 0C10.8125 0 10.4024 0.230469 10.1797 0.605469L6.42971 6.85547C6.19924 7.24219 6.19142 7.72266 6.41408 8.11328C6.63674 8.50391 7.0508 8.74609 7.50002 8.74609L15 8.74609C15.4492 8.74609 15.8672 8.50391 16.086 8.11328C16.3047 7.72266 16.3008 7.24219 16.0703 6.85547L12.3203 0.605469L12.3203 0.605469ZM11.25 12.1875L11.25 17.8125C11.25 18.6758 11.9492 19.375 12.8125 19.375L18.4375 19.375C19.3008 19.375 20 18.6758 20 17.8125L20 12.1875C20 11.3242 19.3008 10.625 18.4375 10.625L12.8125 10.625C11.9492 10.625 11.25 11.3242 11.25 12.1875L11.25 12.1875ZM5.00002 20C7.76174 20 10 17.7617 10 15C10 12.2383 7.76174 10 5.00002 10C2.2383 10 1.52588e-05 12.2383 1.52588e-05 15C1.52588e-05 17.7617 2.2383 20 5.00002 20L5.00002 20Z" id="Shape" fill="#FFFFFF" fill-rule="evenodd" stroke="none" />
      </g>
    </g>
  </g>
</svg>