<svg width="20" height="20" viewBox="0 0 20 20" fill="none" xmlns="http://www.w3.org/2000/svg">
<path fill-rule="evenodd" clip-rule="evenodd" d="M12.3203 0.605561C12.0977 0.230561 11.6875 9.15527e-05 11.25 9.15527e-05C10.8125 9.15527e-05 10.4024 0.230561 10.1797 0.605561L6.42969 6.85556C6.19922 7.24228 6.1914 7.72275 6.41406 8.11337C6.63672 8.504 7.05078 8.74618 7.5 8.74618H15C15.4492 8.74618 15.8672 8.504 16.086 8.11337C16.3047 7.72275 16.3008 7.24228 16.0703 6.85556L12.3203 0.605561ZM11.25 12.1876V17.8126C11.25 18.6759 11.9492 19.3751 12.8125 19.3751H18.4375C19.3008 19.3751 20 18.6759 20 17.8126V12.1876C20 11.3243 19.3008 10.6251 18.4375 10.6251H12.8125C11.9492 10.6251 11.25 11.3243 11.25 12.1876ZM5 20.0001C7.76172 20.0001 9.99998 17.7618 9.99998 15.0001C9.99998 12.2384 7.76172 10.0001 5 10.0001C2.23828 10.0001 0 12.2384 0 15.0001C0 17.7618 2.23828 20.0001 5 20.0001Z" fill="white"/>
</svg>
