<svg width="20" height="20" viewBox="0 0 20 20" fill="none" xmlns="http://www.w3.org/2000/svg">
<path fill-rule="evenodd" clip-rule="evenodd" d="M4.32638 20.0001C4.02698 20.0001 3.72757 19.9103 3.42817 19.7306C3.12877 19.531 2.91919 19.2716 2.79943 18.9522V18.0241C2.79943 17.4851 2.88925 16.9562 3.06889 16.4372C3.24853 15.9183 3.34833 15.3893 3.36829 14.8504C2.94913 14.8504 2.51999 14.8404 2.08087 14.8205C1.66171 14.7805 1.30242 14.6508 1.00302 14.4312C0.72358 14.1917 0.583862 13.7726 0.583862 13.1738C0.583862 12.575 0.73356 12.1558 1.03296 11.9163C1.35232 11.6767 1.74155 11.527 2.20063 11.4672C2.65971 11.4073 3.10881 11.3574 3.54793 11.3175C3.98706 11.2775 4.33636 11.1478 4.59584 10.9282L5.04494 10.4791C5.20462 10.2197 5.3144 9.93023 5.37428 9.61087C5.43416 9.29151 5.55392 9.00209 5.73356 8.74261C5.85332 8.48312 6.04294 8.08392 6.30242 7.545C6.58187 7.00608 6.87129 6.42724 7.17069 5.80847C7.47009 5.18971 7.74953 4.63083 8.00901 4.13183C8.26849 3.63283 8.44813 3.2935 8.54793 3.11386C8.74754 2.77454 8.99704 2.36536 9.29644 1.88632C9.6158 1.38732 9.97508 0.948195 10.3743 0.568954C10.7935 0.189713 11.2226 9.15527e-05 11.6617 9.15527e-05C12.3204 9.15527e-05 12.8494 0.199693 13.2486 0.598894C13.6677 0.978135 14.007 1.4472 14.2665 2.00608C14.526 2.545 14.7655 3.05398 14.9851 3.53302C15.9432 5.66875 16.8014 7.8943 17.5599 10.2097C18.3384 12.5251 18.9571 14.8404 19.4162 17.1558V17.6049C19.4162 17.9841 19.2765 18.3833 18.9971 18.8025C18.7376 19.2017 18.4182 19.4013 18.039 19.4013C17.4801 19.4013 17.0509 19.2516 16.7515 18.9522C16.4521 18.6528 16.2326 18.2736 16.0929 17.8145C15.9531 17.3554 15.8434 16.8763 15.7635 16.3773C15.7036 15.8783 15.6138 15.4292 15.4941 15.03C15.3743 14.6109 15.1747 14.3015 14.8953 14.1019H12.2605C11.9611 14.1019 11.6418 14.1019 11.3024 14.1019C10.9631 14.0819 10.6238 14.072 10.2845 14.072C9.86528 14.072 9.44614 14.0919 9.02698 14.1318C8.62777 14.1718 8.24853 14.2616 7.88925 14.4013C7.43017 14.561 7.10083 14.8604 6.90123 15.2995C6.70163 15.7187 6.55193 16.1977 6.45213 16.7366C6.35232 17.2556 6.24254 17.7646 6.12278 18.2636C6.00302 18.7626 5.8134 19.1817 5.55392 19.5211C5.29444 19.8404 4.88526 20.0001 4.32638 20.0001ZM8.87727 10.7486H9.62578C10.3044 10.7486 10.9332 10.7486 11.512 10.7486C12.1108 10.7286 12.8993 10.6887 13.8773 10.6288V10.3594C13.8773 10.1398 13.8474 9.93023 13.7875 9.73063C13.7476 9.51107 13.6777 9.29151 13.5779 9.07195C13.4382 8.63282 13.2486 8.11386 13.009 7.51506C12.7695 6.8963 12.54 6.32744 12.3204 5.80847C12.1008 5.26955 11.9412 4.90029 11.8414 4.70069C11.8214 4.68073 11.7615 4.67075 11.6617 4.67075H11.5719C11.4322 4.87035 11.3124 5.08991 11.2126 5.32943C11.1328 5.54899 11.013 5.75857 10.8533 5.95817C10.7735 6.15777 10.6338 6.45718 10.4342 6.85638C10.2545 7.23562 10.0549 7.65478 9.83538 8.11386C9.6158 8.55298 9.40622 8.98213 9.20662 9.40129C9.02698 9.80049 8.88726 10.1199 8.78746 10.3594V10.5091C8.78746 10.6688 8.81739 10.7486 8.87727 10.7486Z" fill="white"/>
</svg>
