<?xml version="1.0" encoding="utf-8"?>
<svg width="20px" height="20px" viewBox="0 0 20 20" version="1.1" xmlns:xlink="http://www.w3.org/1999/xlink" xmlns="http://www.w3.org/2000/svg">
  <defs>
    <path d="M0 0L20 0L20 20L0 20L0 0Z" id="path_1" />
    <clipPath id="mask_1">
      <use xlink:href="#path_1" />
    </clipPath>
  </defs>
  <g id="greyboardiconstext">
    <g id="text">
      <path d="M0 0L20 0L20 20L0 20L0 0Z" id="Background" fill="#FFFFFF" fill-opacity="0" fill-rule="evenodd" stroke="none" />
      <g clip-path="url(#mask_1)">
        <path d="M4.32638 20C4.02698 20 3.72757 19.9102 3.42817 19.7305C3.12877 19.5309 2.91919 19.2715 2.79943 18.9521L2.79943 18.024C2.79943 17.485 2.88925 16.9561 3.06889 16.4371C3.24853 15.9182 3.34833 15.3892 3.36829 14.8503C2.94913 14.8503 2.51999 14.8403 2.08087 14.8204C1.66171 14.7804 1.30242 14.6507 1.00302 14.4311C0.72358 14.1916 0.583862 13.7725 0.583862 13.1737C0.583862 12.5749 0.73356 12.1557 1.03296 11.9162C1.35232 11.6766 1.74155 11.5269 2.20063 11.4671C2.65971 11.4072 3.10881 11.3573 3.54793 11.3174C3.98706 11.2774 4.33636 11.1477 4.59584 10.9281L5.04494 10.479C5.20462 10.2196 5.3144 9.93014 5.37428 9.61078C5.43416 9.29142 5.55392 9.002 5.73356 8.74252C5.85332 8.48303 6.04294 8.08383 6.30242 7.54491C6.58187 7.00599 6.87129 6.42715 7.17069 5.80838C7.47009 5.18962 7.74953 4.63074 8.00901 4.13174C8.26849 3.63274 8.44813 3.29341 8.54793 3.11377C8.74754 2.77445 8.99704 2.36527 9.29644 1.88623C9.6158 1.38723 9.97508 0.948103 10.3743 0.568862C10.7935 0.189621 11.2226 0 11.6617 0C12.3204 0 12.8494 0.199601 13.2486 0.598802C13.6677 0.978043 14.007 1.44711 14.2665 2.00599C14.526 2.54491 14.7655 3.05389 14.9851 3.53293C15.9432 5.66866 16.8014 7.89421 17.5599 10.2096C18.3384 12.525 18.9571 14.8403 19.4162 17.1557L19.4162 17.6048C19.4162 17.984 19.2765 18.3832 18.9971 18.8024C18.7376 19.2016 18.4182 19.4012 18.039 19.4012C17.4801 19.4012 17.0509 19.2515 16.7515 18.9521C16.4521 18.6527 16.2326 18.2735 16.0929 17.8144C15.9531 17.3553 15.8434 16.8762 15.7635 16.3772C15.7036 15.8782 15.6138 15.4291 15.4941 15.0299C15.3743 14.6108 15.1747 14.3014 14.8953 14.1018L12.2605 14.1018C11.9611 14.1018 11.6418 14.1018 11.3024 14.1018C10.9631 14.0818 10.6238 14.0719 10.2845 14.0719C9.86528 14.0719 9.44614 14.0918 9.02698 14.1317C8.62777 14.1717 8.24853 14.2615 7.88925 14.4012C7.43017 14.5609 7.10083 14.8603 6.90123 15.2994C6.70163 15.7186 6.55193 16.1976 6.45213 16.7365C6.35232 17.2555 6.24254 17.7645 6.12278 18.2635C6.00302 18.7625 5.8134 19.1816 5.55392 19.521C5.29444 19.8403 4.88526 20 4.32638 20L4.32638 20ZM8.87727 10.7485L9.62578 10.7485C10.3044 10.7485 10.9332 10.7485 11.512 10.7485C12.1108 10.7285 12.8993 10.6886 13.8773 10.6287L13.8773 10.3593C13.8773 10.1397 13.8474 9.93014 13.7875 9.73054C13.7476 9.51098 13.6777 9.29142 13.5779 9.07186C13.4382 8.63273 13.2486 8.11377 13.009 7.51497C12.7695 6.89621 12.54 6.32735 12.3204 5.80838C12.1008 5.26946 11.9412 4.9002 11.8414 4.7006C11.8214 4.68064 11.7615 4.67066 11.6617 4.67066L11.5719 4.67066C11.4322 4.87026 11.3124 5.08982 11.2126 5.32934C11.1328 5.5489 11.013 5.75848 10.8533 5.95808C10.7735 6.15768 10.6338 6.45709 10.4342 6.85629C10.2545 7.23553 10.0549 7.65469 9.83538 8.11377C9.6158 8.55289 9.40622 8.98204 9.20662 9.4012C9.02698 9.8004 8.88726 10.1198 8.78746 10.3593L8.78746 10.509C8.78746 10.6687 8.81739 10.7485 8.87727 10.7485L8.87727 10.7485Z" id="Shape" fill="#FFFFFF" fill-rule="evenodd" stroke="none" />
      </g>
    </g>
  </g>
</svg>