<?xml version="1.0" encoding="utf-8"?>
<svg width="20px" height="20px" viewBox="0 0 20 20" version="1.1" xmlns:xlink="http://www.w3.org/1999/xlink" xmlns="http://www.w3.org/2000/svg">
  <defs>
    <path d="M0 0L20 0L20 20L0 20L0 0Z" id="path_1" />
    <clipPath id="mask_1">
      <use xlink:href="#path_1" />
    </clipPath>
  </defs>
  <g id="greyboardiconsundo">
    <g id="undo">
      <path d="M0 0L20 0L20 20L0 20L0 0Z" id="Background" fill="#FFFFFF" fill-opacity="0" fill-rule="evenodd" stroke="none" />
      <g clip-path="url(#mask_1)">
        <path d="M17.619 15.2152L20 14.3469C15.7143 2.07377 7.64819 3.89686 4.19979 7.34526L1.97978 5.12526C1.57056 4.71604 0.861638 4.7634 0.393958 5.23108C0.150351 5.47612 0.0124728 5.80687 0.00989788 6.15238C-0.0123724 9.14088 0.00989788 15.2152 0.00989788 15.2152C0.00989788 15.2152 6.15468 15.2152 9.07121 15.2152C9.39755 15.2337 9.7446 15.1204 10.014 14.8511C10.4816 14.3834 10.5275 13.673 10.1198 13.2652L7.89979 11.0453C9.71057 9.30404 14.2857 9.13254 17.619 15.2152L17.619 15.2152Z" id="Shape" fill="#FFFFFF" fill-rule="evenodd" stroke="none" />
      </g>
    </g>
  </g>
</svg>