<svg width="326" height="200" viewBox="0 0 326 200" fill="none" xmlns="http://www.w3.org/2000/svg">
<g id="board_loading" clip-path="url(#clip0_31_550)">
<line id="board-loading-line" x1="102" y1="196" x2="224" y2="196" stroke="currentColor" stroke-width="8" stroke-linecap="round"/>
<g id="board-loading-tool">
<g id="board-loading-pencil">
<path id="board-loading-pencil-tip" d="M97.2882 174.779L97.2881 174.779C95.1849 176.873 94 179.716 94 182.685V200V204H98H115.394C118.359 204 121.207 202.827 123.31 200.734C123.31 200.734 123.31 200.734 123.31 200.734L164.503 159.728L167.351 156.893L164.503 154.058L144.125 133.773L141.303 130.964L138.481 133.773L97.2882 174.779Z" fill="currentColor" stroke="#222222" stroke-width="8"/>
<path id="board-loading-pencil-cap" d="M146.595 126.337L143.748 129.172L146.595 132.007L166.973 152.292L169.795 155.102L172.617 152.292L177.712 147.221L177.712 147.221C182.096 142.857 182.096 135.773 177.712 131.409L177.712 131.409L167.523 121.266C167.523 121.266 167.523 121.266 167.523 121.266C163.149 116.911 156.064 116.911 151.69 121.266C151.69 121.266 151.69 121.266 151.69 121.266L146.595 126.337Z" fill="currentColor" stroke="#222222" stroke-width="8"/>
</g>
<path id="board-loading-eraser" d="M131.731 132.058C126.733 127.07 118.879 126.68 113.435 130.89H113.262L112.091 132.058L76.0693 168.012C76.0693 168.012 76.0693 168.012 76.0693 168.012C70.6436 173.427 70.6436 182.205 76.0693 187.621C76.0693 187.621 76.0693 187.621 76.0693 187.621L88.4214 199.949L88.4215 199.949C91.0314 202.554 94.5674 204 98.2415 204H98.2418H98.2422H98.2426H98.2433H98.244H98.245H98.246H98.2472H98.2485H98.25H98.2516H98.2533H98.2552H98.2572H98.2594H98.2617H98.2641H98.2667H98.2694H98.2722H98.2752H98.2783H98.2815H98.2849H98.2885H98.2921H98.2959H98.2998H98.3039H98.3081H98.3124H98.3169H98.3214H98.3262H98.331H98.336H98.3412H98.3464H98.3518H98.3573H98.363H98.3688H98.3747H98.3807H98.3869H98.3932H98.3997H98.4063H98.413H98.4198H98.4268H98.4339H98.4411H98.4484H98.4559H98.4635H98.4713H98.4791H98.4871H98.4952H98.5035H98.5119H98.5204H98.529H98.5378H98.5467H98.5557H98.5648H98.5741H98.5835H98.593H98.6026H98.6124H98.6223H98.6323H98.6425H98.6527H98.6631H98.6736H98.6843H98.695H98.7059H98.7169H98.7281H98.7393H98.7507H98.7622H98.7738H98.7856H98.7974H98.8094H98.8215H98.8338H98.8461H98.8586H98.8712H98.8839H98.8967H98.9097H98.9228H98.9359H98.9493H98.9627H98.9762H98.9899H99.0037H99.0176H99.0316H99.0457H99.06H99.0744H99.0889H99.1035H99.1182H99.133H99.148H99.163H99.1782H99.1935H99.209H99.2245H99.2401H99.2559H99.2718H99.2878H99.3039H99.3201H99.3364H99.3529H99.3694H99.3861H99.4029H99.4198H99.4368H99.4539H99.4712H99.4885H99.506H99.5235H99.5412H99.559H99.5769H99.5949H99.613H99.6313H99.6496H99.6681H99.6866H99.7053H99.7241H99.743H99.762H99.7811H99.8003H99.8196H99.839H99.8586H99.8782H99.898H99.9178H99.9378H99.9579H99.978H99.9983H100.019H100.039H100.06H100.081H100.101H100.122H100.143H100.164H100.186H100.207H100.228H100.25H100.272H100.293H100.315H100.337H100.359H100.381H100.404H100.426H100.448H100.471H100.494H100.516H100.539H100.562H100.585H100.608H100.632H100.655H100.679H100.702H100.726H100.75H100.773H100.797H100.821H100.846H100.87H100.894H100.919H100.943H100.968H100.993H101.017H101.042H101.067H101.093H101.118H101.143H101.168H101.194H101.22H101.245H101.271H101.297H101.323H101.349H101.375H101.401H101.428H101.454H101.481H101.507H101.534H101.561H101.588H101.615H101.642H101.669H101.696H101.724H101.751H101.779H101.806H101.834H101.862H101.89H101.918H101.946H101.974H102.002H102.031H102.059H102.088H102.116H102.145H102.174H102.203H102.232H102.261H102.29H102.319H102.348H102.378H102.407H102.437H102.466H102.496H102.526H102.556H102.586H102.616H102.646H102.676H102.707H102.737H102.768H102.798H102.829H102.86H102.89H102.921H102.952H102.983H103.015H103.046H103.077H103.109H103.14H103.172H103.203H103.235H103.267H103.299H103.331H103.363H103.395H103.427H103.459H103.492H103.524H103.556H103.589H103.622H103.654H103.687H103.72H103.753H103.786H103.819H103.852H103.886H103.919H103.953H103.986H104.02H104.053H104.087H104.121H104.155H104.189H104.223H104.257H104.291H104.325H104.359H104.394H104.428H104.463H104.497H104.532H104.567H104.602H104.637H104.672H104.707H104.742H104.777H104.812H104.847H104.883H104.918H104.954H104.989H105.025H105.061H105.097H105.132H105.168H105.204H105.24H105.277H105.313H105.349H105.385H105.422H105.458H105.495H105.531H105.568H105.605H105.642H105.678H105.715H105.752H105.789H105.827H105.864H105.901H105.938H105.976H106.013H106.051H106.088H106.126H106.164H106.201H106.239H106.277H106.315H106.353H106.391H106.429H106.467H106.506H106.544H106.582H106.621H106.659H106.698H106.736H106.775H106.814H106.852H106.891H106.93H106.969H107.008H107.047H107.086H107.126H107.165H107.204H107.243H107.283H107.322H107.362H107.401H107.441H107.481H107.52H107.56H107.6H107.64H107.68H107.72H107.76H107.8H107.84H107.881H107.921H107.961H108.002H108.042H108.082H108.123H108.164H108.204H108.245H108.286H108.326H108.367H108.408H108.449H108.49H108.531H108.572H108.613H108.655H108.696H108.737H108.779H108.82H108.861H108.903H108.944H108.986H109.028H109.069H109.111H109.153H109.195H109.236H109.278H109.32H109.362H109.404H109.446H109.489H109.531H109.573H109.615H109.658H109.7H109.742H109.785H109.827H109.87H109.912H109.955H109.998H110.04H110.083H110.126H110.169H110.211H110.254H110.297H110.34H110.383H110.426H110.469H110.513H110.556H110.599H110.642H110.686H110.729H110.772H110.816H110.859H110.903H110.946H110.99H111.033H111.077H111.121H111.164H111.208H111.252H111.296H111.34H111.384H111.427H111.471H111.515H111.559H111.604H111.648H111.692H111.736H111.78H111.824H111.869H111.913H111.957C112.155 204 112.351 204 112.546 204.001C115.752 204.005 118.512 204.009 121.125 202.796C122.52 202.148 123.72 201.243 124.913 200.19C126.088 199.154 127.44 197.805 129.076 196.171C132.393 192.861 138.339 187.045 143.472 182.042C146.035 179.544 148.39 177.254 150.104 175.588C150.961 174.755 151.657 174.078 152.14 173.61L152.696 173.07L152.841 172.929L152.878 172.894L152.887 172.884L152.889 172.882L152.89 172.882C152.89 172.882 152.89 172.882 150.105 170.011L152.89 172.882L152.91 172.862L152.93 172.842C158.356 167.427 158.357 158.649 152.932 153.234C152.931 153.234 152.931 153.234 152.931 153.233C152.931 153.233 152.931 153.233 152.93 153.233L131.732 132.059L131.731 132.058ZM120.68 179.781L114.297 186.152H99.8807L91.5362 177.824L105.128 164.258L120.68 179.781Z" fill="currentColor" stroke="#222222" stroke-width="8"/>
</g>
</g>
<defs>
<clipPath id="clip0_31_550">
<rect width="326" height="200" fill="white"/>
</clipPath>
</defs>
</svg>
