<svg width="154" height="123" viewBox="0 0 154 123" fill="none" xmlns="http://www.w3.org/2000/svg">
<path opacity="0.2" d="M2 114C1.17157 114 0.5 114.672 0.5 115.5C0.5 116.328 1.17157 117 2 117V114ZM82.9999 62L82.4469 63.3944L82.9999 62ZM53.5003 107L54.909 106.485L53.5003 107ZM108.5 55.5L109.024 54.0944L108.5 55.5ZM145 0L136.259 14.9526L153.579 15.0469L145 0ZM7.70881 116.587C8.52796 116.464 9.09178 115.699 8.96814 114.88C8.8445 114.061 8.08022 113.497 7.26107 113.621L7.70881 116.587ZM16.9896 110.255C16.2741 110.673 16.0327 111.591 16.4503 112.307C16.8679 113.022 17.7865 113.264 18.5019 112.846L16.9896 110.255ZM27.1378 105.417C27.6709 104.783 27.5891 103.837 26.955 103.303C26.3209 102.77 25.3747 102.852 24.8416 103.486L27.1378 105.417ZM30.7595 94.6487C30.3577 95.3731 30.6191 96.2862 31.3435 96.6881C32.0679 97.09 32.981 96.8285 33.3829 96.1041L30.7595 94.6487ZM38.3371 86.2405C38.6923 85.4921 38.3736 84.5974 37.6252 84.2422C36.8768 83.887 35.9821 84.2058 35.6269 84.9542L38.3371 86.2405ZM40.5046 75.0712C40.1115 75.8004 40.384 76.7102 41.1132 77.1033C41.8425 77.4964 42.7523 77.2239 43.1454 76.4947L40.5046 75.0712ZM48.9788 67.6428C49.5168 67.0128 49.4423 66.066 48.8123 65.528C48.1824 64.99 47.2356 65.0645 46.6976 65.6945L48.9788 67.6428ZM55.8138 58.6642C55.0563 58.9995 54.7139 59.8854 55.0492 60.643C55.3845 61.4005 56.2704 61.7429 57.028 61.4076L55.8138 58.6642ZM67.0133 59.6738C67.8411 59.707 68.539 59.0628 68.5722 58.235C68.6053 57.4073 67.9611 56.7094 67.1334 56.6762L67.0133 59.6738ZM78.2685 58.7369C77.4767 58.4933 76.6373 58.9377 76.3937 59.7295C76.1501 60.5213 76.5945 61.3607 77.3863 61.6043L78.2685 58.7369ZM86.8445 65.3042C87.5925 65.6601 88.4875 65.3423 88.8435 64.5942C89.1994 63.8462 88.8816 62.9512 88.1335 62.5952L86.8445 65.3042ZM96.7286 67.6182C96.0576 67.1323 95.1198 67.2823 94.6339 67.9533C94.148 68.6243 94.2981 69.5621 94.969 70.048L96.7286 67.6182ZM101.632 76.3734C102.137 77.0302 103.078 77.1534 103.735 76.6485C104.392 76.1436 104.515 75.2019 104.01 74.5451L101.632 76.3734ZM108.485 83.7568C108.295 82.9505 107.487 82.4512 106.681 82.6415C105.874 82.8319 105.375 83.6398 105.565 84.4461L108.485 83.7568ZM105.6 93.3817C105.427 94.1917 105.943 94.989 106.753 95.1625C107.563 95.3359 108.36 94.8198 108.534 94.0098L105.6 93.3817ZM104.691 103.398C105.123 102.691 104.9 101.767 104.193 101.335C103.486 100.904 102.563 101.127 102.131 101.833L104.691 103.398ZM96.2908 109.054C95.6953 109.63 95.6793 110.58 96.2552 111.175C96.8311 111.771 97.7807 111.787 98.3762 111.211L96.2908 109.054ZM90.443 117.309C91.1525 116.882 91.3811 115.96 90.9535 115.25C90.5259 114.541 89.6041 114.312 88.8945 114.74L90.443 117.309ZM80.4157 118.535C79.6218 118.772 79.1699 119.607 79.4065 120.401C79.643 121.195 80.4784 121.647 81.2723 121.41L80.4157 118.535ZM71.1933 122.688C72.0202 122.737 72.7305 122.106 72.7797 121.279C72.8289 120.452 72.1983 119.742 71.3714 119.693L71.1933 122.688ZM62.9201 117.101C62.2174 116.663 61.2921 116.876 60.8532 117.579C60.4144 118.282 60.6282 119.207 61.3308 119.646L62.9201 117.101ZM54.2542 112.17C54.6708 112.886 55.5889 113.129 56.305 112.712C57.0211 112.296 57.264 111.378 56.8475 110.661L54.2542 112.17ZM53.6146 102.156C53.4262 101.35 52.6194 100.848 51.8127 101.037C51.006 101.225 50.5048 102.032 50.6933 102.839L53.6146 102.156ZM49.6825 93.1557C49.6639 93.9839 50.3202 94.6704 51.1484 94.689C51.9767 94.7076 52.6631 94.0512 52.6817 93.223L49.6825 93.1557ZM54.0044 84.3315C54.2261 83.5332 53.7587 82.7065 52.9604 82.4848C52.1622 82.2632 51.3354 82.7306 51.1138 83.5288L54.0044 84.3315ZM54.7968 74.5386C54.3967 75.264 54.6603 76.1764 55.3857 76.5765C56.1111 76.9767 57.0235 76.713 57.4237 75.9876L54.7968 74.5386ZM62.6357 68.5996C63.1837 67.9782 63.1241 67.0303 62.5028 66.4824C61.8815 65.9345 60.9336 65.994 60.3857 66.6153L62.6357 68.5996ZM67.5258 60.0681C66.8596 60.5605 66.7187 61.4998 67.2111 62.166C67.7036 62.8322 68.6428 62.973 69.309 62.4806L67.5258 60.0681ZM77.1159 57.9025C77.8712 57.5622 78.2076 56.674 77.8673 55.9187C77.5271 55.1634 76.6389 54.8269 75.8836 55.1672L77.1159 57.9025ZM85.1079 52.1752C84.2965 52.342 83.7738 53.1349 83.9405 53.9464C84.1072 54.7579 84.9002 55.2806 85.7117 55.1139L85.1079 52.1752ZM94.7008 54.3091C95.529 54.3295 96.2169 53.6747 96.2373 52.8465C96.2578 52.0184 95.6029 51.3304 94.7748 51.31L94.7008 54.3091ZM104.384 52.642C103.581 52.4376 102.765 52.9227 102.56 53.7255C102.356 54.5283 102.841 55.3448 103.644 55.5492L104.384 52.642ZM113.118 58.7022C113.907 58.9555 114.751 58.5214 115.005 57.7327C115.258 56.9439 114.824 56.0992 114.035 55.8459L113.118 58.7022ZM124.141 58.0218C123.314 57.9731 122.604 58.6041 122.555 59.4311C122.507 60.258 123.138 60.9679 123.965 61.0166L124.141 58.0218ZM135.086 57.9011C135.733 57.3832 135.837 56.4393 135.32 55.7926C134.802 55.146 133.858 55.0415 133.211 55.5593L135.086 57.9011ZM138.566 47.3385C138.274 48.1135 138.665 48.9791 139.44 49.2718C140.215 49.5646 141.08 49.1737 141.373 48.3987L138.566 47.3385ZM144.135 37.76C144.279 36.9442 143.734 36.1663 142.918 36.0226C142.102 35.8789 141.324 36.4238 141.181 37.2397L144.135 37.76ZM142.525 26.7225C142.451 27.5476 143.06 28.2764 143.885 28.3502C144.71 28.424 145.439 27.8149 145.513 26.9898L142.525 26.7225ZM146.198 16.1718C146.233 15.3441 145.59 14.6453 144.762 14.611C143.934 14.5768 143.235 15.22 143.201 16.0477L146.198 16.1718ZM143.471 5.36008C143.462 6.18845 144.126 6.86753 144.954 6.87683C145.783 6.88614 146.462 6.22215 146.471 5.39377L143.471 5.36008ZM2 117C4.01169 117 5.91148 116.859 7.70881 116.587L7.26107 113.621C5.62064 113.869 3.87088 114 2 114V117ZM18.5019 112.846C21.874 110.878 24.6958 108.321 27.1378 105.417L24.8416 103.486C22.5749 106.182 20.0082 108.493 16.9896 110.255L18.5019 112.846ZM33.3829 96.1041C35.1648 92.8923 36.7739 89.5343 38.3371 86.2405L35.6269 84.9542C34.0614 88.2528 32.4894 91.5306 30.7595 94.6487L33.3829 96.1041ZM43.1454 76.4947C44.9265 73.1903 46.8128 70.179 48.9788 67.6428L46.6976 65.6945C44.3383 68.4569 42.3364 71.673 40.5046 75.0712L43.1454 76.4947ZM57.028 61.4076C59.8251 60.1696 63.0918 59.5168 67.0133 59.6738L67.1334 56.6762C62.7961 56.5026 59.0677 57.2241 55.8138 58.6642L57.028 61.4076ZM77.3863 61.6043C78.9919 62.0983 80.677 62.6925 82.4469 63.3944L83.5528 60.6056C81.7161 59.8773 79.9563 59.2562 78.2685 58.7369L77.3863 61.6043ZM82.4469 63.3944C84.0009 64.0106 85.4656 64.648 86.8445 65.3042L88.1335 62.5952C86.6911 61.9088 85.1652 61.245 83.5528 60.6056L82.4469 63.3944ZM94.969 70.048C97.7707 72.0768 99.9632 74.203 101.632 76.3734L104.01 74.5451C102.144 72.1174 99.734 69.7946 96.7286 67.6182L94.969 70.048ZM105.565 84.4461C106.266 87.4148 106.234 90.424 105.6 93.3817L108.534 94.0098C109.251 90.6596 109.298 87.1984 108.485 83.7568L105.565 84.4461ZM102.131 101.833C100.552 104.418 98.5642 106.856 96.2908 109.054L98.3762 111.211C100.815 108.852 102.967 106.218 104.691 103.398L102.131 101.833ZM88.8945 114.74C86.1667 116.384 83.295 117.677 80.4157 118.535L81.2723 121.41C84.415 120.474 87.5177 119.072 90.443 117.309L88.8945 114.74ZM71.3714 119.693C68.3168 119.511 65.4485 118.681 62.9201 117.101L61.3308 119.646C64.3365 121.523 67.7029 122.48 71.1933 122.688L71.3714 119.693ZM56.8475 110.661C56.1261 109.421 55.4753 108.033 54.909 106.485L52.0915 107.515C52.7138 109.216 53.4378 110.766 54.2542 112.17L56.8475 110.661ZM54.909 106.485C54.3808 105.041 53.9511 103.597 53.6146 102.156L50.6933 102.839C51.0574 104.398 51.522 105.958 52.0915 107.515L54.909 106.485ZM52.6817 93.223C52.7499 90.1869 53.2059 87.2073 54.0044 84.3315L51.1138 83.5288C50.251 86.6362 49.7564 89.8625 49.6825 93.1557L52.6817 93.223ZM57.4237 75.9876C58.8766 73.3536 60.6297 70.8743 62.6357 68.5996L60.3857 66.6153C58.2383 69.0503 56.3579 71.7085 54.7968 74.5386L57.4237 75.9876ZM69.309 62.4806C71.7303 60.6909 74.3481 59.1494 77.1159 57.9025L75.8836 55.1672C72.9178 56.5034 70.1157 58.1538 67.5258 60.0681L69.309 62.4806ZM85.7117 55.1139C88.624 54.5155 91.6339 54.2335 94.7008 54.3091L94.7748 51.31C91.4751 51.2287 88.2379 51.5322 85.1079 52.1752L85.7117 55.1139ZM103.644 55.5492C105.084 55.916 106.53 56.3667 107.976 56.9056L109.024 54.0944C107.477 53.5182 105.929 53.0354 104.384 52.642L103.644 55.5492ZM107.976 56.9056C109.752 57.5673 111.467 58.1718 113.118 58.7022L114.035 55.8459C112.439 55.3332 110.769 54.7448 109.024 54.0944L107.976 56.9056ZM123.965 61.0166C128.178 61.2646 131.932 60.4271 135.086 57.9011L133.211 55.5593C130.787 57.5002 127.832 58.2391 124.141 58.0218L123.965 61.0166ZM141.373 48.3987C142.487 45.4506 143.402 41.9255 144.135 37.76L141.181 37.2397C140.469 41.2794 139.596 44.6133 138.566 47.3385L141.373 48.3987ZM145.513 26.9898C145.809 23.6814 146.037 20.0819 146.198 16.1718L143.201 16.0477C143.041 19.9183 142.816 23.4694 142.525 26.7225L145.513 26.9898Z" fill="white"/>
</svg>
