<svg width="41" height="40" viewBox="0 0 41 40" fill="none" xmlns="http://www.w3.org/2000/svg">
<path d="M20.2 0.484497C17.5736 0.484497 14.9729 1.00181 12.5463 2.00691C10.1198 3.012 7.91505 4.48519 6.05788 6.34236C2.30715 10.0931 0.200012 15.1802 0.200012 20.4845C0.200012 29.3245 5.94001 36.8245 13.88 39.4845C14.88 39.6445 15.2 39.0245 15.2 38.4845V35.1045C9.66001 36.3045 8.48001 32.4245 8.48001 32.4245C7.56001 30.1045 6.26001 29.4845 6.26001 29.4845C4.44001 28.2445 6.40001 28.2845 6.40001 28.2845C8.40001 28.4245 9.46001 30.3445 9.46001 30.3445C11.2 33.3845 14.14 32.4845 15.28 32.0045C15.46 30.7045 15.98 29.8245 16.54 29.3245C12.1 28.8245 7.44001 27.1045 7.44001 19.4845C7.44001 17.2645 8.20001 15.4845 9.50001 14.0645C9.30001 13.5645 8.60001 11.4845 9.70001 8.7845C9.70001 8.7845 11.38 8.2445 15.2 10.8245C16.78 10.3845 18.5 10.1645 20.2 10.1645C21.9 10.1645 23.62 10.3845 25.2 10.8245C29.02 8.2445 30.7 8.7845 30.7 8.7845C31.8 11.4845 31.1 13.5645 30.9 14.0645C32.2 15.4845 32.96 17.2645 32.96 19.4845C32.96 27.1245 28.28 28.8045 23.82 29.3045C24.54 29.9245 25.2 31.1445 25.2 33.0045V38.4845C25.2 39.0245 25.52 39.6645 26.54 39.4845C34.48 36.8045 40.2 29.3245 40.2 20.4845C40.2 17.8581 39.6827 15.2573 38.6776 12.8308C37.6725 10.4043 36.1993 8.19953 34.3421 6.34236C32.485 4.48519 30.2802 3.012 27.8537 2.00691C25.4272 1.00181 22.8264 0.484497 20.2 0.484497V0.484497Z" fill="white"/>
</svg>
